<?xml version="1.0" encoding="UTF-8" standalone="no"?>
<!-- Created with Inkscape (http://www.inkscape.org/) -->

<svg
   width="256"
   height="256"
   viewBox="0 0 67.733334 67.733334"
   version="1.1"
   id="svg8"
   inkscape:version="1.1 (c68e22c387, 2021-05-23)"
   sodipodi:docname="favicon.svg"
   inkscape:export-filename="C:\Users\sakus\RankPrediction_Web\favicon.png"
   inkscape:export-xdpi="94.599998"
   inkscape:export-ydpi="94.599998"
   xmlns:inkscape="http://www.inkscape.org/namespaces/inkscape"
   xmlns:sodipodi="http://sodipodi.sourceforge.net/DTD/sodipodi-0.dtd"
   xmlns="http://www.w3.org/2000/svg"
   xmlns:svg="http://www.w3.org/2000/svg"
   xmlns:rdf="http://www.w3.org/1999/02/22-rdf-syntax-ns#"
   xmlns:cc="http://creativecommons.org/ns#"
   xmlns:dc="http://purl.org/dc/elements/1.1/">
  <defs
     id="defs2">
    <clipPath
       clipPathUnits="userSpaceOnUse"
       id="clipPath6605">
      <circle
         style="fill:none;fill-opacity:1;stroke:#000000;stroke-width:0.964999;stroke-miterlimit:4;stroke-dasharray:none;stroke-dashoffset:0;stroke-opacity:1"
         id="circle6607"
         cx="118.9884"
         cy="141.8132"
         r="34.424316" />
    </clipPath>
  </defs>
  <sodipodi:namedview
     id="base"
     pagecolor="#ffffff"
     bordercolor="#666666"
     borderopacity="1.0"
     inkscape:pageopacity="0.0"
     inkscape:pageshadow="2"
     inkscape:zoom="2.8667569"
     inkscape:cx="110.0016"
     inkscape:cy="127.6008"
     inkscape:document-units="mm"
     inkscape:current-layer="layer1"
     showgrid="false"
     inkscape:window-width="1920"
     inkscape:window-height="1057"
     inkscape:window-x="1912"
     inkscape:window-y="-8"
     inkscape:window-maximized="1"
     inkscape:pagecheckerboard="0"
     fit-margin-top="0"
     fit-margin-left="0"
     fit-margin-right="0"
     fit-margin-bottom="0"
     units="px"
     inkscape:rotation="-2" />
  <metadata
     id="metadata5">
    <rdf:RDF>
      <cc:Work
         rdf:about="">
        <dc:format>image/svg+xml</dc:format>
        <dc:type
           rdf:resource="http://purl.org/dc/dcmitype/StillImage" />
      </cc:Work>
    </rdf:RDF>
  </metadata>
  <g
     inkscape:label="レイヤー 1"
     inkscape:groupmode="layer"
     id="layer1"
     transform="translate(-83.441555,-100.27952)">
    <path
       style="fill:#a0a0a0;stroke:none;stroke-width:0.176777"
       d=""
       id="path26164"
       transform="scale(0.26458333)" />
    <path
       style="fill:#a0a0a0;stroke:none;stroke-width:0.0883883"
       d=""
       id="path36169"
       transform="scale(0.26458333)" />
    <circle
       style="fill:#ffffff;fill-opacity:1;stroke:none;stroke-width:1.1304;stroke-miterlimit:4;stroke-dasharray:none;stroke-dashoffset:0;stroke-opacity:1"
       id="path36"
       cx="117.30822"
       cy="134.14618"
       r="32.961803"
       inkscape:export-filename="C:\Users\sakus\RankPrediction_Web\path36.png"
       inkscape:export-xdpi="161.905"
       inkscape:export-ydpi="161.905" />
    <path
       style="fill:none;stroke:#000000;stroke-width:0.264583px;stroke-linecap:butt;stroke-linejoin:miter;stroke-opacity:1"
       d="m 123.52599,155.57219 0.12132,0.79539"
       id="path187" />
    <path
       style="fill:none;stroke:#000000;stroke-width:0.264583px;stroke-linecap:butt;stroke-linejoin:miter;stroke-opacity:1"
       d="m 113.12279,133.95549 0.0755,1.35751"
       id="path758" />
    <path
       style="fill:none;stroke:#000000;stroke-width:0.264583px;stroke-linecap:butt;stroke-linejoin:miter;stroke-opacity:1"
       d="m 116.03853,133.6756 0.37661,1.1643"
       id="path760" />
    <path
       style="fill:none;stroke:#000000;stroke-width:0.264583px;stroke-linecap:butt;stroke-linejoin:miter;stroke-opacity:1"
       d="m 122.20837,134.57717 -0.41413,0.98511"
       id="path762" />
    <path
       style="fill:none;stroke:#000000;stroke-width:0.264583px;stroke-linecap:butt;stroke-linejoin:miter;stroke-opacity:1"
       d="m 126.39604,137.23034 -0.31839,1.18525"
       id="path764" />
    <path
       style="fill:none;stroke:#000000;stroke-width:0.264583px;stroke-linecap:butt;stroke-linejoin:miter;stroke-opacity:1"
       d="m 135.37062,119.33884 0.59082,0.26253"
       id="path766"
       sodipodi:nodetypes="cc" />
    <path
       style="fill:none;stroke:#000000;stroke-width:0.264583px;stroke-linecap:butt;stroke-linejoin:miter;stroke-opacity:1"
       d="m 127.41361,111.1496 1.19621,-0.3099"
       id="path934" />
    <path
       style="fill:#cbcbcb;fill-opacity:1;stroke:none;stroke-width:0.0935442"
       d="m 117.3556,157.8355 c -0.0281,-0.0291 -0.39145,-0.0933 -0.80736,-0.14257 -0.61544,-0.0729 -0.81962,-0.13974 -1.09693,-0.35902 -0.18741,-0.14819 -0.29073,-0.28514 -0.22959,-0.30434 0.21347,-0.067 0.11279,-0.28983 -0.25195,-0.55755 l -0.36752,-0.26977 0.01,-0.68114 c 0.0225,-1.54984 -0.61202,-1.97765 -1.71878,-1.1588 -0.6564,0.48564 -1.45894,0.85669 -1.45573,0.67304 0.004,-0.22658 -0.43209,-0.26524 -1.29841,-0.65353 -1.04748,-0.46949 -1.40272,-0.7021 -1.5329,-1.2898 -0.1222,-0.55166 -0.18729,-0.76245 -0.78012,-0.91742 -0.86551,-0.22626 -1.71521,-0.72644 -1.91349,-1.29212 -0.78749,-2.24667 -1.89463,-4.18364 -3.59207,-6.39728 -0.88823,-1.15835 -1.2256,-1.15716 -1.07945,-1.64613 0.13181,-0.44099 0.43306,-1.49035 0.1936,-1.69626 -0.19392,-0.16673 -0.17598,-0.20833 0.19455,-0.4513 0.31926,-0.20935 0.33978,-0.21103 0.70493,-0.0575 0.2201,0.0926 0.60931,0.15695 0.93833,0.15526 0.46705,-0.002 0.76103,-0.052 1.04025,0.15412 0.29071,0.21458 0.29699,0.2444 0.62839,1.20445 0.25069,0.72624 0.49204,1.68878 0.49054,1.99482 -0.003,0.67896 0.19137,0.97003 0.36126,1.09887 0.10907,0.0827 0.2905,0.0612 0.24108,0.28763 -0.0613,0.28096 -0.24799,0.27025 -0.0626,0.22522 0.17019,-0.0413 0.40111,0.30416 0.39745,0.51409 -0.004,0.20323 -0.11514,0.27053 0.69013,0.96811 1.44084,1.24814 2.64396,2.05479 2.73288,2.00196 0.0426,-0.0253 0.0812,0.0459 0.14339,0.12364 0.30816,0.38478 0.31227,0.33915 0.30869,-0.39609 -10e-4,-0.26926 0.30311,-0.80745 0.5753,-1.3758 0.84924,-1.77325 0.76605,-3.25971 -0.17227,-8.02867 -0.22858,-1.16178 -0.69027,-2.0299 -0.74598,-2.41024 -0.0789,-0.53876 0.0406,-1.34081 0.0139,-1.20295 -0.22011,1.13467 -0.45756,-0.38078 -0.26479,-1.14474 0.21312,-0.84465 0.14002,-1.15352 -0.19105,-1.08683 -0.35709,0.0719 -0.27969,-0.26686 0.0544,-0.56989 0.1294,-0.11738 0.29657,-0.48464 0.38379,-0.70158 0.14716,-0.36605 0.35642,-0.32143 0.21495,-0.63352 -0.0838,-0.18496 -0.12975,-0.39011 -0.10199,-0.4559 0.0332,-0.0788 0.052,-0.0663 0.0551,0.0365 0.005,0.17572 0.76377,0.5238 0.92835,0.42601 0.15718,-0.0934 0.12333,-0.23542 -0.0587,-0.2462 -0.09,-0.005 0.0686,-0.0875 0.35239,-0.18266 0.28377,-0.0951 0.5794,-0.23425 0.65696,-0.30915 0.22912,-0.22126 -0.0318,3.08024 -0.64109,3.01898 -0.69443,-0.0698 -0.14967,-1.34171 -0.61757,-0.92954 -0.73768,0.6499 -2.08887,-1.08846 -2.00044,-1.6256 0.0316,-0.19176 -0.77524,0.4898 -0.23781,-0.63069 0.0536,-0.11182 -0.0639,-0.40191 0.14426,-1.3123 0.22343,-0.97702 0.55271,-1.31799 0.58214,-3.10511 0.0366,-2.22148 -0.26367,-2.76261 -0.6099,-3.3809 -0.1207,-0.21555 -0.25803,-0.83777 -0.26879,-1.01045 -0.0173,-0.27829 0.11075,-0.89685 0.31807,-0.8966 0.38195,5.3e-4 0.20229,0.29395 -0.31847,-0.51206 -0.38197,-0.59121 -0.51242,-0.9562 -0.48588,-1.32257 0.0168,-0.23127 0.19094,-2.19763 0.24395,-4.35791 0.12435,-5.06791 0.2559,-5.74416 0.77833,-5.56826 0.24746,0.0833 0.84138,0.64489 0.83411,1.10004 -0.003,0.20239 0.0729,1.0079 0.12038,1.31747 0.0474,0.30957 0.30178,1.02726 0.36444,1.63423 0.1222,1.18373 -0.12549,1.03636 0.082,1.03998 0.16805,0.003 0.35973,0.39491 0.17263,1.3025 -0.2299,1.1152 -0.0257,0.93346 0.19676,1.17972 0.2324,0.2573 0.71052,1.65261 0.70653,1.88704 -0.002,0.12917 0.35628,0.43893 0.0549,0.43367 -0.46081,-0.008 -0.20718,-0.23021 0.25483,-0.0657 0.25613,0.0913 -0.26134,0.48815 -0.3994,0.53839 -0.211,0.0768 -0.17126,0.0945 0.1562,1.0603 0.20072,0.59201 0.19229,0.95771 0.24456,2.51866 0.14441,4.31299 -0.1753,4.7828 0.42333,5.4873 0.47845,0.56306 0.85836,1.06244 0.85137,1.60957 -0.005,0.35687 0.18429,2.73469 0.031,2.78041 -0.10458,0.0312 0.21323,1.69994 0.21143,1.80279 -0.003,0.16247 -0.74746,-1.1364 -0.85513,-1.43017 l -0.76115,-2.07668 0.39082,0.41967 c 0.4576,0.49139 0.9928,1.7301 1.06536,2.46579 0.0356,0.36087 0.19664,0.4535 0.0426,0.88421 -0.11371,0.318 -0.17752,0.93401 -0.18072,1.11729 -0.004,0.20994 -0.0976,0.60886 -0.18661,0.64123 -0.17933,0.0652 -0.20483,0.13139 -0.0452,1.05217 0.0684,0.39448 0.15721,1.42283 0.19866,2.21379 0.0846,1.61506 0.18892,3.2572 0.59803,4.61552 0.48333,1.60473 1.26724,3.32106 1.51887,3.32545 0.0491,8e-4 0.15403,-0.11309 0.23324,-0.25321 l 0.14403,-0.25478 -8e-4,0.25728 c -0.001,0.38965 -0.88983,0.12707 -0.76907,-0.31915 0.0589,-0.21767 0.92301,-0.53941 1.11932,-1.15348 0.52371,-1.63818 1.01367,-2.30805 1.16296,-4.37176 -1.3909,-1.70574 1.05091,-5.49749 0.0979,-5.12583 -0.17072,0.10169 -0.17872,0.0853 -0.12634,-0.25949 0.05,-0.32886 0.0347,-0.36843 -0.14346,-0.37154 -0.18084,-0.003 -0.19812,-0.0535 -0.18588,-0.5412 0.007,-0.29575 0.0811,-0.70495 0.16383,-0.90934 0.0827,-0.20438 0.17578,-0.47198 0.20688,-0.59466 0.0509,-0.20084 0.0326,-0.21747 -0.1844,-0.16702 -0.21071,0.049 -0.24804,0.0208 -0.29745,-0.22449 -0.0311,-0.15428 -0.0946,-0.305 -0.14121,-0.33493 -0.0466,-0.0299 0.004,-0.22193 0.11346,-0.42668 0.12096,-0.22722 -0.85979,-0.52276 0.17545,-0.71152 0.29654,-0.0541 -0.23053,-0.038 -0.51946,-0.11658 -0.45122,-0.12266 -0.65925,-0.17664 -0.53948,-0.58263 0.13009,-0.44098 0.36112,0.20263 0.13471,-0.10746 l -0.15831,-0.21681 -0.23299,-0.0358 c -0.74405,-0.11446 0.81964,-3.37594 1.11181,-3.32211 0.10006,0.0184 -0.002,0.46608 0.085,0.0767 0.14545,-0.64698 0.53567,-0.88402 0.42315,-0.81717 -0.16158,0.096 -0.40808,0.22961 -0.46024,-1.91673 -0.10004,-4.11605 -0.11157,-5.40996 -0.31491,-6.04711 -0.25107,-0.78672 -0.26938,-1.28329 0.30138,-2.73948 0.55251,-1.40963 0.632,-1.92713 0.41891,-2.72729 -0.0929,-0.34878 -0.21387,-0.80826 -0.19922,-1.1955 0.0162,-0.42863 0.10639,-0.79058 0.01,-1.0219 -0.1454,-0.348 -0.1881,-0.62713 0.11033,-1.19828 0.21004,-0.40197 0.4191,-1.01721 0.56586,-1.78446 0.2848,-1.4889 0.81783,-2.04187 1.14569,-1.66664 0.33349,0.38169 0.69298,4.4941 0.37309,4.9817 -0.11205,0.17079 -0.16214,-0.12755 0.022,0.0632 0.20534,0.21263 0.25633,0.31228 0.17189,1.65011 -0.0863,1.36669 -0.12454,1.9848 0.14585,3.72033 0.12369,0.79392 0.14278,1.07303 0.0361,1.84156 -0.0686,0.49365 -0.29714,2.81914 -0.37756,4.64447 -0.0804,1.82533 -0.13436,2.90101 -0.17614,3.29908 -0.0751,0.71576 -0.20504,0.58361 0.0381,0.34885 0.0888,-0.0858 0.31697,0.59057 0.30671,1.1786 -0.0118,0.67775 0.058,0.63004 0.2252,0.67689 0.22102,0.0619 0.55223,0.99933 0.54674,1.3906 -0.002,0.14634 -0.051,0.77527 -0.26778,1.08578 l -0.0445,0.55892 0.15168,0.41479 c 0.14142,0.38672 -0.16275,0.69088 0.12918,0.67563 1.43603,-0.075 -0.046,0.78715 0.18272,1.36005 0.26602,0.6661 0.18042,0.92862 0.0694,1.19298 -0.61194,1.45772 -1.75595,7.35841 -1.78348,8.9701 -0.0138,0.80613 -0.0333,0.93771 0.1622,1.10585 0.0673,0.0579 0.22624,0.3304 0.37755,0.36342 0.25691,0.0561 0.14063,-0.0681 0.55527,-0.66866 0.60764,-0.88009 0.99688,-1.61207 1.29536,-2.50396 0.46221,-1.38109 1.1758,-5.12345 1.03525,-5.35998 -0.0443,-0.0745 -0.23546,0.99569 -0.2198,0.80534 l 0.055,-0.66891 -0.084,-0.99244 c -0.0516,-0.60957 0.28589,-1.29719 0.45328,-1.29427 0.12106,0.002 0.2677,-0.47089 0.33459,-0.93734 0.0409,-0.28539 0.0973,-0.44274 0.27481,-0.57928 0.16573,-0.12748 0.10363,-0.27237 0.0747,-0.39154 -0.0405,-0.16676 0.3077,0.0246 1.02696,0.0371 0.59765,0.0104 0.81292,-0.0215 0.93423,-0.13844 0.0867,-0.0836 -0.28615,-0.0488 -0.32001,-0.10575 -0.0873,-0.14688 -0.93489,0.0427 -1.36477,0.1878 -0.39517,0.13335 -0.99369,-0.14502 -1.17385,-0.64498 -0.14886,-0.41308 -0.16109,-0.95791 0.10316,-1.39129 0.26663,-0.43729 0.64788,-0.75435 0.87437,-0.66288 0.11715,0.0473 -0.0197,0.10042 -0.0135,-0.18886 0.009,-0.44055 0.3153,-0.74711 0.51802,-0.66524 0.23329,0.0942 0.0959,0.14056 0.50733,-2.36587 0.37999,-2.31498 0.55059,-3.48517 0.69275,-5.26026 0.0954,-1.19171 0.19063,-1.92156 0.80126,-2.89744 0.90515,-1.44659 1.24368,-1.80346 1.03433,-2.45736 -0.12501,-0.39045 -0.29117,-0.46911 -0.005,-1.24535 0.16416,-0.44554 0.2666,-0.87985 0.26967,-1.05536 0.003,-0.17551 0.32036,-0.7376 0.51118,-1.1413 0.30812,-0.65185 0.48894,-1.33749 0.70002,-2.51581 0.0473,-0.26431 0.23919,-0.3818 0.41573,-0.44542 0.39734,-0.14318 0.60057,-0.16936 0.76062,0.27273 0.14217,0.39271 0.17163,0.65647 0.0294,0.93233 -0.1057,0.20496 -0.20862,0.68304 -0.25427,1.48345 -0.0519,0.90921 0.0584,1.40533 -0.13633,1.96478 -0.18124,0.52059 -0.2857,0.75403 -0.25187,1.04388 0.0356,0.30487 -0.0144,0.75989 -0.25432,1.43267 -0.27801,0.77965 -0.3081,0.93506 -0.39712,2.25477 -0.0555,0.82235 -0.35147,1.42434 -0.35625,1.434 -0.005,0.01 0.005,0.34567 -0.19668,0.57107 -0.32367,0.36104 -0.26733,0.397 -0.33393,0.96143 -0.0416,0.35237 -0.30053,1.77659 -0.60577,3.1644 -0.30524,1.3878 -0.64174,2.7194 -0.64516,2.86992 -0.007,0.31944 -0.16839,0.53947 -0.39613,0.61901 -0.13672,0.0478 -0.31185,-0.0414 -0.32196,0.53723 -0.0109,0.6242 0.23771,0.71706 0.4632,0.99458 0.22515,0.2771 0.31877,0.43749 0.33123,1.15362 0.0164,0.94513 -0.39544,1.77849 -0.88529,1.87715 -0.20274,0.0408 -0.44812,-0.30595 -0.34975,-0.22213 0.32846,0.27988 0.71856,0.60472 -0.35152,0.11221 l 0.58024,0.26706 c 0.11167,0.10906 0.1479,0.15025 0.1479,0.15025 -0.53375,0.1631 -0.008,0.33177 -0.0881,1.5659 -0.0491,0.75105 -0.2505,1.3425 -0.71533,2.2831 -1.03899,2.10243 -2.25565,6.22702 -2.28717,7.63715 -0.028,1.25098 0.16497,1.36658 0.79961,1.09069 0.27334,-0.11882 0.83449,-0.81382 1.42496,-1.94917 3.41507,-7.60558 -0.11457,2.16904 1.6286,-4.86401 0.18311,-1.07369 0.22415,-1.9065 0.53457,-1.90108 0.21389,0.004 0.11616,0.50755 0.0679,0.22292 -0.0379,-0.22367 -0.10135,-0.56391 0.007,-0.65055 0.0827,-0.0663 0.26168,-0.24992 0.29732,-0.45032 0.0761,-0.42795 0.15323,-0.8319 0.85046,-0.90153 0.45283,-0.0452 1.24779,0.0691 1.42976,0.25756 0.19474,0.20167 0.23329,0.41949 0.173,1.35627 -0.0769,1.19405 -0.62061,2.06848 -1.63478,4.07816 -1.14179,2.26256 -1.80354,3.98332 -2.13512,5.82668 -0.16661,0.92627 -0.45782,1.97892 -0.95007,2.48327 -0.22221,0.22768 -0.60635,0.47469 -0.64029,0.60981 -0.0339,0.13511 -0.051,-0.20512 -0.49624,0.93687 -0.12493,0.32042 -0.54617,0.49825 -0.53043,0.55094 0.0157,0.0527 0.26282,0.007 0.44532,0.11046 0.25591,0.14546 -0.0975,-0.20635 0.54439,0.48166 0.50672,0.54312 0.57598,1.19894 0.46455,1.54855 -0.0652,0.20455 -0.14103,0.48662 -0.12541,0.61328 0.0249,0.2016 0.0723,0.41265 -0.50594,0.69264 -0.36327,0.1759 -0.39548,0.31788 -0.76749,0.4848 l -1.0633,0.47709 -0.70157,-0.0976 c -0.25052,-0.0349 -0.40657,-0.36722 -0.46903,-0.45943 -0.17152,-0.25322 -1.31671,-1.24424 -1.44029,-1.2464 -0.25073,-0.004 0.21369,1.02798 0.46833,1.04107 0.0608,0.003 -0.006,0.0664 -0.14917,0.14072 -0.1428,0.0743 -0.26032,0.17386 -0.26114,0.2213 -8e-4,0.0474 -0.19957,0.23209 -0.44163,0.41032 -0.39979,0.29436 -0.76746,0.40208 -0.90086,0.26393 z m -2.53553,-3.70348 c 0.006,-0.26388 -0.0815,-0.50026 -0.18693,-0.50209 -0.097,-0.002 -0.12821,0.77751 -0.035,0.874 0.0866,0.0897 0.21596,-0.127 0.22196,-0.37191 z m 3.94727,-22.40624 c 0.32812,-0.0852 0.13035,1.6106 -0.17988,1.46001 -0.37664,-0.1828 0.18579,-0.62877 -0.20807,-0.50636 -0.4098,0.12736 -2.15616,-1.11833 -2.08543,-0.99929 0.0592,0.0995 2.1192,0.13756 2.47338,0.0456 z m -1.4742,-12.4312 c 0.004,-0.22678 0.90807,-0.68684 0.39557,-0.69579 -0.71874,-0.0125 -0.2707,-1.01177 0.41465,-0.78174 0.82583,0.27717 -0.81421,1.70624 -0.81022,1.47753 z"
       id="path2915"
       sodipodi:nodetypes="csssscsssssssssssssssssssssssssssssssssssssssscsssssscsssssssssscsssssssssscsssssssscsccssccssssssssssssscssssssssssssssssssssssscscssssssssssscsssssssssssssssssssssssssssssssssssssssssscsssssccssssssssssssssssssscsssssssccscssssssssssscs" />
    <path
       style="fill:#cbcbcb;fill-opacity:1;stroke:none;stroke-width:0.0935442"
       d="m 100.95155,140.92698 c -0.12779,-0.39169 -0.77898,-1.80275 -0.77399,-2.089 0.003,-0.17552 0.17313,-0.45012 0.2669,-0.44848 0.16945,0.003 0.51079,0.28407 0.19062,-0.6282 -0.40253,-1.14695 -1.067467,-1.86641 -1.388964,-1.87202 -0.23362,-0.004 -1.087043,-1.11527 -1.148577,-1.47811 -0.03198,-0.18858 -0.375868,-0.41265 -0.245843,-0.73753 0.303352,-0.75803 -0.412592,0.55851 -0.928722,0.54951 -0.233757,-0.004 -0.241464,-2.87306 -0.395806,-3.7721 -0.07351,-0.42822 0.810585,0.15743 0.689432,-0.23277 -0.151923,-0.4893 -0.179096,-0.16011 -0.137678,-0.40136 0.05274,-0.30718 -0.01865,-0.9011 -0.04588,-0.73626 -0.612619,3.70889 -1.010566,-1.2814 -0.96506,-1.55455 0.05598,-0.336 0.714737,-0.34377 1.207876,0.18348 0.402704,0.43055 0.629454,0.81327 0.783913,1.35566 0.235897,0.82836 0.295944,0.96076 0.593942,0.89147 0.493503,-0.11474 1.475267,1.16779 1.370097,1.85994 -0.0476,0.31343 -0.0785,0.43228 0.17787,0.65573 0.16019,0.13964 0.44321,0.33166 0.52967,0.38211 0.13273,0.0774 0.0726,0.24776 0.0577,1.10221 -0.0235,1.34487 -0.0496,1.67638 1.17735,2.93903 0.50866,0.52345 1.69386,1.25473 1.68165,1.30829 -0.0364,0.15954 0.18948,0.31793 0.44098,0.36024 0.19175,0.0323 0.22331,0.19189 0.24218,0.47075 0.0176,0.25953 0.009,0.58823 -0.14048,0.67786 -0.10701,0.0643 -0.1796,0.6003 -0.18168,0.71915 -0.003,0.15974 1.16789,2.42513 0.91703,2.52484 -0.18665,0.0742 -1.95184,-2.44714 -2.06197,-2.46876 -0.19788,-0.0388 -0.19764,-0.0403 0.02,-0.12696 0.20103,-0.08 0.32123,2.06647 0.18254,1.94722 -0.0836,-0.0719 -0.16227,0.003 -0.42883,-0.0233 -0.60196,-0.06 -1.21853,-0.63843 -1.27203,-0.17001 -0.0344,0.30104 0.46469,1.50584 -0.1034,-0.23541 z m -0.74642,-7.01844 c 0.003,-0.1585 -0.604217,-0.74966 -0.772734,-0.7526 -0.24827,-0.004 0.257337,-0.35659 0.560767,-0.0921 0.290057,0.25285 0.208757,1.02909 0.211967,0.84469 z"
       id="path5955"
       sodipodi:nodetypes="ssssssssssssssssssssssssssssssssssssss" />
    <path
       style="fill:#cbcbcb;fill-opacity:1;stroke:none;stroke-width:0.0935442"
       d="m 128.2424,137.13715 c -0.13086,-0.13551 -0.0118,-0.14733 -0.51861,-0.3511 -0.24473,-0.0984 -0.78274,-0.0118 -1.00365,0.005 -0.34654,0.0269 -0.51771,-0.6539 -0.51426,-0.8519 0.0103,-0.59046 0.93411,-1.82176 1.54955,-1.81102 0.12644,0.002 0.31662,0.10398 0.35988,-0.0777 0.0347,-0.14567 0.30194,-0.38611 0.51663,-0.73779 0.912,-1.49392 1.41015,-3.57652 1.48017,-4.34442 0.0216,-0.23738 0.0605,0.30304 0.41116,-0.62694 0.16585,-0.43987 0.30546,-0.52149 0.33343,-0.88066 0.0409,-0.52462 0.0566,-0.71124 0.66363,-1.25565 0.61557,-0.55209 0.76097,-0.87674 1.1938,-2.0075 0.0952,-0.24881 0.35859,-0.66752 0.48135,-0.77055 0.15633,-0.13121 0.0857,0.16119 0.0515,0.0144 -0.0557,-0.23942 0.41472,-0.98463 0.70625,-1.23935 0.38427,-0.33575 0.63624,-1.01208 0.93009,-1.89756 0.16327,-0.49202 0.40015,-0.83294 0.47478,-0.83619 0.0273,5.3e-4 0.35334,0.0519 0.4466,0.11551 0.13881,0.0946 -0.004,0.47964 0.37956,0.87711 0.31994,0.33186 -0.67296,0.78678 -0.64169,0.8916 0.11796,0.39546 -0.69911,3.09301 -1.35,4.39787 -0.22991,0.46091 -0.59032,1.40638 -0.60953,1.55861 -0.0192,0.15224 -0.0886,-0.0353 -0.16632,-0.005 -0.10307,0.0399 0.15393,-0.033 0.14692,0.36877 -0.009,0.49874 -0.39703,0.88837 -0.56594,0.85729 -0.10259,-0.0189 -0.42257,-0.20735 -0.65151,-0.35715 -0.45689,-0.29894 -0.78726,-0.83008 -0.84618,-0.66709 -0.0208,0.0576 0.54664,-0.0435 0.73032,0.0692 0.25202,0.15469 0.65533,-0.0437 0.61067,0.0889 -0.0339,0.10061 0.076,0.78256 0.1567,0.86613 0.30837,0.31933 -0.47476,1.21721 -1.15887,2.32639 -0.20414,0.33097 -0.64734,1.18631 -0.97061,1.90101 -0.36236,0.80112 -0.42593,1.57511 -0.5737,1.69156 -0.29704,0.23408 -0.48704,0.38719 -0.24721,0.39137 0.31174,0.005 -0.18985,2.11533 -0.56142,2.5711 -0.20285,0.24882 -0.76259,0.22366 -0.93487,0.0453 z m 6.05825,-12.50912 c 0.0656,-0.16233 -0.25602,-0.50446 -0.47781,-0.50833 -0.21676,-0.004 0.45744,-0.64327 0.66032,-0.44754 0.24093,0.23245 -0.2657,1.16184 -0.18251,0.95587 z m 0.328,-1.09325 c 0.002,-0.11422 0.10991,1.22072 -0.11706,1.21676 -0.12641,-0.002 0.12917,-1.98891 0.28641,-1.82608 0.18061,0.18703 -0.17248,0.7883 -0.16935,0.60932 z"
       id="path7318"
       sodipodi:nodetypes="sssscssssssssssscsssssssssssscssssssscssccscc" />
    <path
       style="fill:#cbcbcb;fill-opacity:1;stroke:none;stroke-width:0.0935442"
       d="m 117.05346,160.88483 c -0.12782,-0.0469 -0.70292,-0.2639 -1.14007,-0.27779 -0.94695,-0.0301 -4.21196,1.68458 -2.58227,-0.52756 0.28771,-0.39055 -0.16254,-2.1113 -0.2869,-2.07954 -2.72317,0.69538 -1.66974,-1.7635 -1.88868,-2.1695 -0.30076,-0.5577 0.19182,-1.49686 0.9314,-1.83062 0.20016,-0.0903 0.68594,-11.60492 2.68805,-18.135 1.40539,-4.58382 6.95089,-14.60567 -0.94238,17.49962 -0.1857,0.75532 0.26209,-0.9464 0.3261,-0.33511 0.0273,0.26073 1.63256,1.58299 1.68884,1.69272 0.0563,0.10973 0.13657,0.18634 0.13517,0.33121 -0.004,0.4303 0.40401,-0.41542 0.89558,0.0583 0.48348,0.46594 -0.44856,0.54703 0.18728,0.5599 0.20575,0.004 0.30813,0.51336 0.50009,0.5703 0.44094,0.13078 0.36494,-0.87367 0.84732,-1.3638 0.18054,-0.18343 2.94049,-0.27138 2.04253,1.59839 0.13366,0.002 0.64026,-0.38291 0.89569,-0.14488 0.10049,0.0936 -0.26807,2.14923 -0.12363,2.36663 0.3247,0.48873 1.12527,1.50175 0.70513,1.41757 -0.1607,-0.0322 -1.69009,-0.81186 -2.10205,-0.73958 -0.92698,0.16257 -2.46615,1.62271 -2.7772,1.50872 z"
       id="path8525"
       sodipodi:nodetypes="ssssssssssssssscssscs" />
    <path
       style="fill:#cbcbcb;fill-opacity:1;stroke:none;stroke-width:0.0935442"
       d="m 114.86031,166.81169 c -0.1196,-0.0454 -0.17494,-0.46142 -0.40993,-0.7696 -0.18752,-0.24591 -1.75789,-2.18452 -2.02172,-3.31107 -0.18352,-0.78362 -0.15269,-0.0344 -0.50945,-0.99468 -0.44177,-1.18914 -0.51532,-1.91893 -0.38267,-2.37936 0.12973,-0.45035 1.12215,-1.74515 1.38966,-1.74048 0.12912,0.002 1.4122,0.65185 1.75571,1.01638 0.30154,0.32 0.94092,0.0524 1.14507,0.1484 0.57197,0.26901 2.68884,0.54435 4.56027,0.59613 1.42304,0.0394 -0.57886,0.30983 -0.13316,0.17708 0.48837,-0.14546 0.73095,-0.003 0.98261,0.13293 0.33251,0.17937 0.54492,0.86509 0.54015,1.13863 -0.006,0.33147 -0.23062,0.87539 -0.76641,1.5585 l -0.46369,0.59118 -0.0955,1.88065 c -0.081,1.59534 0.11455,2.13234 -0.088,2.13708 -2.08632,0.0488 -4.54673,0.18144 -4.88677,0.0523 z"
       id="path9810"
       sodipodi:nodetypes="ssssscssssssscssss" />
    <path
       style="fill:#cbcbcb;fill-opacity:1;stroke:none;stroke-width:0.0935442"
       d="m 124.123,165.56056 c -0.0187,-0.0647 -0.10111,-0.43447 -0.18305,-0.82183 -0.30906,-1.46103 -0.89483,-2.499 -1.57222,-3.43366 -0.43588,-0.60141 -0.71925,-1.21403 -0.81424,-1.71216 -0.0536,-0.28092 0.13319,-0.46069 0.66611,-0.61571 0.29929,-0.0871 1.03121,-0.44544 1.43188,-0.64819 0.86067,-0.43554 0.87616,-0.44989 1.05747,0.15199 0.12097,0.4016 0.61587,0.86538 0.87416,0.95235 0.13741,0.0463 0.22505,0.29527 0.21825,0.68453 -0.012,0.68813 0.2956,2.84061 0.50108,4.04128 0.096,0.56074 -0.17621,1.03307 -0.20066,1.05669 -0.0479,0.0463 -1.73741,0.46588 -1.86669,0.46362 -0.0429,-8e-4 -0.0934,-0.0543 -0.11209,-0.11891 z"
       id="path10978"
       sodipodi:nodetypes="ssssssssssscs" />
    <path
       style="fill:#5d5d5d;fill-opacity:1;stroke:none;stroke-width:0.132292"
       d="m 126.53932,164.80273 c -0.0318,-0.33915 -0.24852,-2.38359 -0.37417,-4.27186 -0.11804,-1.77372 0.28034,-0.44515 0.008,-0.60217 -0.57622,-0.33173 -1.81568,-1.98343 -2.06476,-1.98778 0.2383,0.46718 -0.42382,0.22211 -0.54759,0.34163 -0.12377,0.11952 -0.61597,0.49264 -1.16086,0.50069 l -0.80229,0.32858 -0.50425,-0.67729 c -0.12677,-0.17027 -0.18804,-0.67878 0.0179,-0.32501 0.0575,0.0988 -0.26345,-0.15556 0.0702,-0.25326 0.56557,-0.16561 2.70453,-1.43932 2.52168,-1.77903 -0.0813,-0.15101 0.0465,-0.59343 0.12005,-0.63713 0.25958,-0.15423 0.2336,-0.40066 -0.33305,-1.50179 -0.53044,-1.03076 -0.94906,-0.83686 -0.76154,-1.09487 0.1114,-0.15328 0.59529,-0.66965 0.59729,-0.7842 0.002,-0.11454 0.40016,-0.78115 0.69154,-1.05592 0.63753,-0.60116 0.60626,-1.00006 1.17333,-2.9505 0.5616,-1.93165 1.45535,-4.36715 2.29608,-5.93434 0.5379,-1.0027 0.78982,-1.69555 1.00659,-2.79208 0.18956,-0.95891 0.26931,-1.40186 0.42694,-1.4917 0.7084,-0.40379 1.04305,-1.07462 1.21427,-1.87129 0.30995,-1.44206 0.99465,-0.6299 0.67459,1.30371 -0.17061,1.03077 -0.51108,3.54182 -0.6386,4.55301 -0.27844,2.20785 -0.97994,5.39105 -1.30302,6.69286 -0.168,0.67694 -0.0715,0.83296 -0.19786,0.78194 -0.11862,-0.0479 -0.17106,0.31952 -0.17503,0.54676 -0.003,0.18536 -0.0201,0.42035 -0.0936,0.46404 -0.0735,0.0437 -0.40024,0.28799 -0.20594,0.19833 1.2257,-0.5656 -0.68849,0.70456 -0.80926,0.70245 -0.22071,-0.004 0.68656,-1.17401 0.68197,-0.91122 -0.004,0.25407 -0.57963,1.74746 -0.47441,1.48695 0.048,-0.11873 -0.0296,0.0984 0.0195,0.083 0.35526,-0.11152 -0.074,0.51198 -0.33014,1.0826 -0.25611,0.57063 -0.40267,1.16685 -0.53022,1.57867 -0.12755,0.41182 -0.38997,1.10943 -0.46185,1.15213 -0.0762,0.0453 1.45721,-1.40397 0.50475,-0.19172 -0.3335,0.42447 0.004,0.95976 0.3367,3.00632 0.13648,0.83926 0.34529,1.54665 0.54684,2.55969 0.20155,1.01304 0.4767,4.74282 0.4154,4.80046 -0.0612,0.0576 -0.63068,0.11746 -0.82471,0.16179 -0.27388,0.0626 -0.59158,0.26784 -0.60987,0.0728 z"
       id="path11990"
       sodipodi:nodetypes="ssscsscssssssscsssssssssssssssssssssssssss" />
    <path
       style="fill:#5d5d5d;fill-opacity:1;stroke:none;stroke-width:0.132292"
       d="m 121.71113,147.38101 c -0.29705,0.0795 -0.22005,-0.80003 -0.0365,-1.57075 0.38054,-1.59822 1.58049,-5.46734 2.16,-6.76265 0.46797,-1.04602 0.46799,-1.21449 0.58972,-2.45693 0.11804,-1.20483 0.0638,-1.59725 0.36909,-2.09802 0.24532,-0.40232 0.81808,-3.65622 0.94187,-3.09044 l 0.41042,0.24482 0.58,0.2869 c 0.22037,0.10901 0.31576,0.83781 0.4322,1.22556 l 0.31263,0.68219 -0.63343,0.87482 c -0.65903,0.91018 -1.18389,1.44825 -0.56317,1.48712 1.02452,0.0642 0.14272,0.77598 -0.20109,1.21079 -0.35236,0.44561 -0.44958,0.29621 0.10176,-0.19264 0.21358,-0.18938 0.16187,0.37787 -0.18196,0.94179 -0.21736,0.35648 -0.67289,1.77689 -0.93911,2.93625 -0.67223,2.9276 -1.47901,6.07121 -2.70393,6.17931 l -0.38484,0.034 z"
       id="path13938"
       sodipodi:nodetypes="sssssscsscssssssscs" />
    <path
       style="fill:#5d5d5d;fill-opacity:1;stroke:none;stroke-width:0.132292"
       d="m 114.49196,147.02049 c -0.95086,-0.45605 -2.24346,-10.09434 -1.32029,-11.25325 0.19854,-0.24925 0.0923,-0.76709 0.0488,-0.98305 -0.0447,-0.22216 -0.11129,-0.61812 -0.0273,-0.71573 0.11022,-0.12819 0.0377,-0.0406 -0.21281,-0.9014 -0.30064,-1.03316 -0.29546,-1.51742 -0.13367,-1.88917 0.35134,-0.80732 0.45386,-0.91465 0.051,-1.74859 -0.79966,-1.65532 -1.17489,-2.81925 -1.33412,-6.36874 -0.0327,-0.72828 0.16681,-2.43855 0.23677,-2.61782 0.1462,-0.37454 0.62587,0.33738 1.11699,4.06107 0.40587,3.07727 0.40893,4.32339 1.08712,4.1211 0.55375,-0.16517 0.48603,-0.0685 0.71798,-7.26435 0.26854,-8.33117 0.56724,-12.6643 1.02011,-13.7956 0.37097,-0.92671 1.64453,-1.79304 2.39459,-1.78083 0.67723,0.011 1.19571,0.47559 1.47001,1.45353 0.56118,2.00066 0.13716,5.89498 -0.0533,5.89166 -0.17451,-0.003 -0.49379,-1.03763 -0.47331,-2.37928 0.0275,-1.80156 -0.0661,-3.46365 -0.32369,-3.65902 -0.3703,-0.28082 -0.82742,-0.35902 -1.17955,-0.019 -0.31994,0.30895 -0.47091,1.02884 -0.4846,1.81317 -0.004,0.23394 -0.25512,1.02297 -0.46689,1.45482 -0.3176,0.64767 -0.22924,0.76297 -0.22671,1.52701 0.002,0.50943 -0.0489,1.02755 0.0393,1.4685 0.17198,0.86006 0.10417,1.64779 -0.60447,4.04398 -0.25486,0.86176 -0.21636,1.02443 -0.10833,1.83477 0.20022,1.50178 0.28242,4.28531 0.24535,6.42893 -0.0318,1.8355 0.0958,2.09142 -0.28882,3.29106 -0.58909,1.83727 -0.84752,2.27599 -0.1896,3.10107 0.34686,0.43499 0.65945,0.59771 0.59692,0.73571 -0.0519,0.1146 -0.44536,0.63818 -0.48471,0.84689 -0.0534,0.28308 -0.0249,0.36459 0.11234,0.32091 0.30605,-0.0974 0.28314,0.53382 0.39385,1.19737 0.1396,0.8367 0.0588,0.91028 0.19127,1.84331 0.47251,3.32932 0.26493,3.9669 -0.0381,7.03608 -0.13006,1.31735 -0.77396,2.84349 -1.05783,3.09151 -0.22382,0.19556 -0.007,0.15265 -0.32062,0.002 z"
       id="path15613"
       sodipodi:nodetypes="sssssssscsssssssssssscsssssssssssssss" />
    <path
       style="fill:#5d5d5d;fill-opacity:1;stroke:none;stroke-width:0.132292"
       d="m 118.34021,145.83538 c -0.18807,-0.8999 -0.11447,-2.92964 0.89604,-6.49725 l 0.78077,-3.27763 -0.0941,-1.65554 c -0.0795,-1.39933 -0.46175,-1.30519 -0.36235,-2.61948 0.0276,-0.36515 0.11078,-1.14268 -0.0549,-1.5984 -0.39151,-1.07668 -0.8062,-3.04652 -0.7515,-6.11937 0.0582,-3.27061 0.66935,-5.92398 0.87726,-5.55855 0.0899,0.15801 1.33404,2.87524 0.90947,5.47511 l 0.16843,4.43539 v 0 c 0,0 0.017,0.52704 0.13227,0.55184 0.35557,0.0765 0.27861,-0.3119 1.32058,-3.86258 1.28365,-4.37422 2.08023,-4.28097 2.07894,-3.41229 -7.9e-4,0.51091 -0.15148,0.97081 -0.35969,1.29491 -0.24536,0.38192 -0.24412,0.44302 -0.18564,1.11603 0.11957,1.37582 -0.55059,4.88107 -0.99502,5.53421 -0.11504,0.16905 -0.17444,0.43746 -0.1313,0.55603 0.0562,0.15457 -0.0993,0.52155 -0.24163,0.46405 -0.14039,-0.0567 -0.12934,-0.2576 -0.13302,-0.0501 -0.003,0.1614 0.003,0.41598 -0.29651,0.88378 -0.29917,0.46779 -0.77862,1.16263 -0.78163,1.33261 -0.003,0.16998 0.0299,0.41145 0.25451,0.73599 0.43306,0.62579 0.78523,0.32182 0.33485,1.17581 -0.0255,0.0484 0.0601,0.10722 0.2115,0.0704 0.31662,-0.0769 0.0876,0.44794 -0.3886,1.22692 -0.24075,0.39385 -0.37222,0.86357 -0.41246,2.34134 -0.0688,2.52775 -1.08097,6.4262 -1.86377,7.45195 -0.18815,0.24654 -0.3245,0.1889 -0.37139,0.31543 -0.15448,0.41686 -0.34704,0.61806 -0.4648,0.0546 z"
       id="path17249"
       sodipodi:nodetypes="sscsssssscsssssssssssssssssssss" />
    <path
       style="fill:#5d5d5d;fill-opacity:1;stroke:none;stroke-width:0.132292"
       d="m 109.59023,149.04641 c 0.28147,0.22187 -1.40242,-1.08189 -1.4751,-1.0873 -0.1501,-0.0112 -1.2497,-1.06992 -1.75145,-1.97586 -0.33415,-0.60333 -0.93116,-2.34298 -0.95073,-2.59454 -0.006,-0.0729 -0.35284,-0.67221 -0.43872,-1.29226 l -0.16344,-1.17994 0.36676,-0.53372 c 0.47431,-0.69026 0.54632,0.22154 0.0385,0.63392 -0.22712,0.18443 -0.73942,0.0924 -0.9511,-0.46794 -0.0729,-0.19304 -0.16182,-1.64852 0.0852,-2.08696 0.12828,-0.22767 0.89159,-1.08357 1.61437,-1.84279 0.72277,-0.75922 -0.18052,-0.33305 1.64016,-1.10802 0.23069,-0.0982 -0.52754,0.54182 -0.89996,0.88636 -0.20668,0.1912 -1.61202,0.0101 -1.65378,-0.0331 -0.0956,-0.099 1.12832,-1.5499 1.4568,-1.89788 0.66019,-0.6994 1.00465,-5.0391 0.49717,-11.31838 -0.15902,-1.96761 -0.39616,-4.84291 -0.40538,-6.40766 -0.009,-1.56475 0.009,-3.14954 -0.0199,-3.52282 -0.061,-0.78603 0.20349,-2.80019 0.54318,-3.48491 0.45392,-0.91499 1.48208,-1.89204 2.15153,-1.4055 0.62969,0.45763 1.70584,1.22013 1.90498,4.60285 0.0508,0.86318 -0.13616,3.76193 -0.19149,3.27504 -0.0456,-0.40104 -0.62522,-2.96293 -0.74542,-3.19726 -0.12019,-0.23432 -0.26615,-1.05508 -0.32894,-1.5612 -0.19219,-1.54911 -0.35534,-2.04748 -1.09834,-2.06045 -0.84778,-0.0148 -1.00096,0.62338 -0.64392,1.70815 0.10693,0.32487 0.0508,0.93749 -0.19216,1.68987 -0.29742,0.92108 -0.32713,0.65133 -0.14545,2.18552 0.23069,1.94797 0.23907,2.387 -0.0507,3.5018 -0.23231,0.89377 -0.1806,0.82692 0.13788,1.85716 0.17653,0.57104 0.27342,1.32851 0.31495,1.76586 0.0415,0.43736 0.30934,1.5425 0.43313,2.47327 0.29783,2.23937 0.29326,3.26863 -0.0797,4.60032 -0.47325,1.69002 -0.25227,2.48916 0.73105,2.72319 0.54006,0.12854 0.60634,0.41461 0.24678,1.06472 -0.30784,0.5566 -0.65803,0.59348 -0.42487,0.77029 0.22953,0.17407 0.68195,0.44623 0.46283,0.85243 -0.22559,0.41819 -0.33392,0.23311 0.10404,1.57687 0.82451,2.52979 1.45507,6.94357 1.42253,8.52869 -0.0311,1.51262 -0.56345,3.71659 -1.24233,4.32727 -0.37371,0.33618 -0.99703,-0.51522 -0.99703,-0.51522 z m -2.15438,-11.89344 c 0.29385,-0.26965 0.41687,1.10733 0.021,1.32151 -0.47362,0.25626 -0.95578,-0.93493 -0.52959,-1.05503 0.17319,-0.0488 0.40206,-0.16873 0.5086,-0.26648 z"
       id="path18495"
       sodipodi:nodetypes="ssssscsssssssssssssssssssssssssssssssssscssssss" />
    <path
       style="fill:#5d5d5d;fill-opacity:1;stroke:none;stroke-width:0.132292"
       d="m 103.32206,137.67889 c -0.86622,-0.60559 -1.4321,-1.075 -1.61066,-1.71167 -0.0783,-0.27903 -0.70841,-1.00319 -0.74601,-1.42628 -0.0524,-0.58956 0.0548,-1.49295 -0.23545,-1.83539 -0.29026,-0.34247 -0.44969,0.0668 -0.44224,-0.36008 0.009,-0.49091 -0.20935,-0.98341 -0.848694,-1.71265 -0.39894,-0.45504 -0.875171,-1.23689 -1.257322,-1.79809 -0.843224,-1.2383 -1.269188,-1.37744 -1.973067,-1.61552 -1.392322,-0.47094 -1.392322,-0.47094 -0.308726,-1.52675 0.424196,-0.41332 1.797902,-0.0335 2.284598,0.33964 0.216744,0.16617 0.476115,0.42051 0.578874,0.42231 0.256593,0.004 1.580687,1.21965 2.272297,2.24378 0.79316,1.17451 1.15192,2.2193 1.326,3.14693 0.22009,1.17281 1.66877,3.01024 2.84979,4.44252 0.64038,0.77661 0.17348,1.62204 -0.3703,1.22684 -0.31932,-0.23208 -0.12164,0.2043 -0.12486,0.38884 -0.001,0.0615 -0.9896,-0.80345 -0.8464,-0.66924 0.26472,0.24811 1.02936,0.67244 0.8464,0.66924 -0.0555,-0.001 -1.02862,0.0312 -1.39423,-0.22443 z"
       id="path19934"
       sodipodi:nodetypes="ssssssssssssssssscs" />
    <path
       style="fill:#5d5d5d;fill-opacity:1;stroke:none;stroke-width:0.0935442"
       d="m 112.94495,166.99133 c -0.45987,-0.46571 -1.14843,0.47179 -1.4661,-1.2245 -0.4058,-2.19344 -1.75474,-4.73167 -2.47222,-6.33574 -0.19299,-0.43147 0.0441,-2.87716 0.0136,-3.05677 -0.0305,-0.17961 -0.19465,-0.49929 -0.36486,-0.7104 -0.17021,-0.21111 -0.30918,-0.45352 -0.30882,-0.53869 0.003,-0.75344 1.64729,2.44958 0.47111,1.93385 -0.33288,-0.14596 -3.59396,-5.13717 -3.39981,-5.19814 0.0666,-0.0209 0.0514,-0.18873 -0.0452,-0.49977 -0.4665,-1.77748 0.78145,2.1304 0.14155,1.40062 0.22332,0.49351 -0.4634,-0.43995 -0.47153,-0.40466 -0.16691,0.7244 -1.06032,-1.74082 -1.8774,-3.47395 -0.81709,-1.73314 -1.7567,-3.37519 -1.93058,-3.66055 -0.17388,-0.28535 -0.84154,-2.16087 -0.81793,-2.18367 0.10424,-0.10067 4.72878,4.31644 3.36911,3.93904 -0.38292,-0.10628 -0.13611,0.0341 0.004,0.30413 0.17732,0.34271 0.26645,0.23203 0.22744,0.41629 -0.0656,0.30983 -0.46033,0.20945 -0.25959,0.21295 0.11136,0.002 -0.14193,-0.57082 -0.18368,-0.84817 -0.0698,-0.40468 0.40857,0.0604 0.61111,0.39102 0.10564,0.17245 0.50495,1.13606 0.80812,1.76833 0.66215,1.38095 1.03611,1.97251 1.48409,2.46002 0.43035,0.46833 0.4545,0.52462 1.07602,0.61479 0.58965,0.0856 0.92195,0.27881 0.91675,0.57713 -0.01,0.55167 0.48278,0.90094 1.72495,1.55391 0.8607,0.45244 0.81936,0.75173 0.80732,1.44158 -0.0106,0.60689 0.79632,0.73363 1.03788,1.73614 l 0.21499,0.45593 -0.35965,0.46383 c -0.25244,0.32557 -0.64237,0.55616 -0.59885,1.29641 0.0707,1.2021 1.37848,2.94232 2.25541,5.09966 l 0.55474,1.24945 -0.01,0.23659 c -0.009,0.21955 0.60707,-0.0107 0.4887,0.18989 -0.38154,0.98693 -1.4901,0.27105 -1.64067,0.39345 z"
       id="path21297"
       sodipodi:nodetypes="ccssssssccssssssscccssssssscssscscc" />
    <path
       style="fill:#5d5d5d;fill-opacity:1;stroke:none;stroke-width:0.0935442"
       d="m 120.42863,164.91286 0.11812,-1.93713 c 0.23153,-0.19609 0.96063,-1.64329 1.1086,-1.52833 0.3373,0.26205 -0.0472,0.017 0.0858,-0.0686 l 0.25433,-0.52209 0.53395,1.07381 c 0.23272,0.46802 0.62251,1.12928 0.727,1.41141 0.17589,0.47492 0.68114,3.22045 0.63133,3.26196 -0.0121,0.0101 -0.6983,0.36304 -1.36894,0.46063 -0.67065,0.0976 -1.19941,-0.11412 -1.33908,-0.0689 l -0.46939,0.15208 c 0.0193,-0.54124 -0.29607,-1.97557 -0.28174,-2.23483 z"
       id="path22621"
       sodipodi:nodetypes="ccsscsssssccc" />
    <path
       style="fill:#5d5d5d;fill-opacity:1;stroke:none;stroke-width:0.0467722"
       d="m 127.84252,122.37427 c -0.0537,0.0763 -0.22082,-2.23921 -0.13581,-2.7502 0.0451,-0.27134 0.17045,-0.88784 0.2905,-1.24112 0.22018,-0.64797 0.4425,-1.41201 0.44822,-1.73963 0.004,-0.21111 -0.0724,-0.5121 0.0813,-0.73228 0.1614,-0.23125 0.26585,-0.21736 0.19778,-0.99218 -0.074,-0.84273 -0.0702,-1.35282 0.15491,-2.19896 0.10333,-0.38838 0.23219,-0.64338 0.2183,-0.76272 -0.0295,-0.25331 -0.22692,-0.33962 -0.48817,-0.67584 -0.27141,-0.34929 -0.17575,-0.79236 -0.14789,-0.52206 0.008,0.0815 -0.30576,0.24777 -0.49618,0.21432 -0.29206,-0.0513 -0.58859,0.18039 -0.70707,0.59166 -0.0753,0.26139 -0.0546,0.67935 -0.0624,1.03214 -0.01,0.43996 -0.24704,1.0031 -0.57494,1.47059 -0.15546,0.22164 -0.22477,0.60136 -0.3255,0.84082 -0.39913,0.94886 -0.71619,1.99974 -0.62128,2.5706 0.12581,0.75667 -0.029,1.18945 -0.97243,2.61844 -0.16673,0.25254 -0.52929,0.54167 -0.63621,0.75984 -0.1563,0.31893 -0.25796,1.64043 -0.28445,1.56548 -0.031,-0.0877 -0.56739,-0.4582 -0.61516,-0.34898 -0.12411,0.28382 0.15451,-0.83733 0.38237,-1.52862 0.38162,-1.15777 1.02947,-2.89837 1.47837,-4.93104 0.88416,-4.00364 1.44653,-5.25292 2.36553,-5.66815 1.15572,-0.52219 2.1952,0.14405 2.52802,1.75191 0.14518,0.70137 0.0559,1.68992 -0.0875,1.91183 -0.15005,0.23214 -0.13337,0.42385 -0.23215,1.30095 -0.10367,0.92058 -0.20681,1.7057 -0.53981,2.90385 -0.49226,1.77122 -0.79198,2.31316 -0.93917,3.27392 -0.0505,0.32936 0.12669,0.70923 -0.0513,0.96194 z"
       id="path24062"
       sodipodi:nodetypes="ssssssssssssssssssssssssssssss" />
    <path
       style="fill:#5d5d5d;fill-opacity:1;stroke:none;stroke-width:0.0467722"
       d="m 125.358,130.87189 c -0.50607,-0.37244 -0.0208,-1.37821 0.45746,-3.59403 0.22132,-1.02528 0.81132,-2.70488 0.86998,-3.02546 0.18519,-1.01226 0.50243,-1.37122 0.65911,-1.36849 0.23206,0.004 0.47142,0.73964 0.185,1.78085 -0.10918,0.39688 -0.60382,2.65002 -0.81756,3.61112 -0.40454,1.81908 -0.3105,2.63274 -0.79455,2.7695 l -0.23391,0.0661 z"
       id="path25074"
       sodipodi:nodetypes="ssssssscs" />
    <path
       style="fill:#5d5d5d;fill-opacity:1;stroke:none;stroke-width:0.0467722"
       d="m 127.40142,133.56228 c -0.0673,-0.093 -0.34901,-0.47855 -0.4085,-0.61394 -0.10282,-0.23395 -0.32323,-0.44479 -0.25004,-0.59231 0.0423,-0.0854 -2.63696,-1.23304 0.26808,-1.12668 0.34194,0.0125 1.1399,0.27987 1.1405,0.24532 0.001,-0.0785 -0.18562,0.32569 -0.51075,0.43123 -0.15061,0.0489 -0.52148,-0.38178 -0.5338,-0.39453 -0.0469,-0.0486 0.57192,-0.81968 0.9692,-1.22014 0.53173,-0.53596 0.53786,-0.33513 0.66326,-0.76437 0.15015,-0.51397 0.51051,-1.38308 0.84455,-1.9961 0.31022,-0.56932 1.16758,-1.35686 1.19742,-1.26185 0.0571,0.18168 -0.36285,1.66099 -0.6172,1.96738 -0.21985,0.26484 -0.30223,0.40085 -0.36131,0.96151 -0.0838,0.79501 -0.50764,2.15173 -1.13272,3.46273 -0.41072,0.86142 -0.99172,1.18479 -1.19959,1.18116 -0.0377,-5.3e-4 0.0667,-0.0916 -5.3e-4,-0.18466 z"
       id="path26203"
       sodipodi:nodetypes="sssscssssssssscss" />
    <path
       style="fill:#5d5d5d;fill-opacity:1;stroke:none;stroke-width:0.0467722"
       d="m 130.80037,135.36816 c -0.0545,-0.0365 -0.8322,0.2661 -0.65915,-0.14722 0.3795,-0.90644 2.78577,-6.19749 2.98,-6.43574 0.10962,-0.13445 0.71929,-0.1424 0.75021,-0.0452 0.10429,0.32778 -2.00716,5.47312 -2.5533,6.05133 -0.0917,0.0971 -0.47058,0.60841 -0.51776,0.57683 z"
       id="path27332"
       sodipodi:nodetypes="ssssss" />
    <path
       style="fill:#5d5d5d;fill-opacity:1;stroke:none;stroke-width:0.0467722"
       d="m 130.47659,126.23756 c 5.3e-4,-0.0282 0.12075,-0.58539 0.37154,-1.04962 0.46769,-0.86576 1.08583,-1.86832 1.49757,-2.93379 0.72806,-1.88404 2.07907,-3.54282 2.91482,-3.70418 0.33216,-0.0641 1.15937,0.49473 1.35364,0.82168 0.0819,0.13791 -0.0975,0.46293 -0.14325,0.55879 -0.069,0.14472 -0.30009,0.45358 -0.33511,0.24705 -0.0308,-0.18187 -0.0135,-0.43578 -0.17229,-0.45602 -0.0602,-0.008 -0.19189,-0.25697 -0.33652,-0.30229 l -0.31882,-0.02 -0.13447,0.205 c -0.22196,0.33837 -0.38387,0.5988 -0.56664,1.26437 -0.0352,0.12803 -0.26731,0.5674 -0.37091,0.77675 -0.15018,0.30347 -0.26345,0.40791 -0.42859,0.51733 -0.11393,0.0755 -0.41429,0.27893 -0.40002,0.37601 0.0922,0.62711 -0.33634,0.72196 -0.74325,1.68497 -0.54489,1.28953 -1.01498,2.13503 -1.53306,2.39966 -0.15889,0.0812 -0.98899,-0.18141 -0.65464,-0.38567 z"
       id="path28539"
       sodipodi:nodetypes="csssssssscsssssssc" />
    <path
       style="fill:#5d5d5d;fill-opacity:1;stroke:none;stroke-width:0.0467722"
       d="m 134.06702,126.67169 c -0.0694,-0.007 -0.003,-0.49531 0.26304,-0.894 0.25419,-0.38144 0.0298,-0.35796 0.43092,-1.19963 l 0.42439,-0.89055 v 0 c 0,0 0.18497,-1.5291 0.47522,-2.18185 0.11026,-0.24796 0.39117,-0.49449 0.65566,-0.5159 0.35127,-0.0284 0.094,1.36267 0.005,1.97666 -0.11745,0.81197 -0.34816,1.5096 -0.92193,2.63525 -0.49575,0.9726 -0.94677,1.10895 -0.98223,1.10537 z"
       id="path29590"
       sodipodi:nodetypes="ssscsssssss" />
    <path
       style="fill:#5d5d5d;fill-opacity:1;stroke:none;stroke-width:0.0330729"
       d="m 99.799493,140.62315 c -0.0687,-0.0385 -0.17646,-0.0451 -0.17532,-0.11078 0.005,-0.30447 -0.355797,-1.16098 -1.180536,-2.84351 -0.851201,-1.73652 -3.839678,-8.22131 -2.268969,-8.69545 0.481348,-0.1453 2.082308,6.09216 2.594208,6.73274 0.714898,0.8946 1.569194,2.84783 1.785554,3.77406 0.16928,0.72464 -0.10982,1.50404 -0.53383,1.2667 z"
       id="path30680"
       sodipodi:nodetypes="ssssssss" />
    <path
       style="fill:#5d5d5d;fill-opacity:1;stroke:none;stroke-width:0.0330729"
       d="m 100.52803,143.4796 c -0.16783,-0.38674 -0.547697,-2.04418 -0.543607,-2.28414 0.002,-0.14221 0.467857,-0.23273 0.604467,-0.13638 0.18529,0.13069 0.60465,0.68252 0.69513,1.1533 0.06,0.31197 -0.14372,1.25978 -0.19278,1.34319 -0.0327,0.0556 -0.47959,0.11672 -0.56321,-0.076 z"
       id="path32082"
       sodipodi:nodetypes="scssss" />
    <path
       style="fill:#5d5d5d;fill-opacity:1;stroke:none;stroke-width:0.0330729"
       d="m 107.93794,154.96427 c -0.20359,-0.16338 -1.88,-1.90305 -1.87918,-1.95008 0.002,-0.0977 0.9873,0.68648 1.40771,1.12006 0.30841,0.31807 0.75259,0.97169 0.65922,0.97006 -0.007,-1.3e-4 -0.0919,-0.0631 -0.18775,-0.14004 z"
       id="path33094" />
    <path
       style="fill:#5d5d5d;fill-opacity:1;stroke:none;stroke-width:0.0233861"
       d="m 111.34552,118.76867 c -0.0466,-0.0523 -0.27289,-0.0244 -0.34162,-0.16384 -0.27251,-0.5529 -0.40044,-1.64947 -0.21561,-1.84702 0.13128,-0.1403 0.63622,0.0528 0.73378,0.25979 0.14054,0.29814 0.26113,1.44666 0.18879,1.62736 -0.0327,0.0816 -0.26642,0.23469 -0.36534,0.12371 z"
       id="path33989"
       sodipodi:nodetypes="ssssss" />
    <path
       style="fill:#5d5d5d;fill-opacity:1;stroke:none;stroke-width:0.0233861"
       d="m 111.43053,120.6666 c -0.0547,-0.092 -0.30547,-0.8953 -0.25101,-0.98019 0.0497,-0.0773 0.66679,0.63779 0.65792,0.82821 -0.007,0.14921 -0.42617,0.50589 -0.47034,0.43155 z"
       id="path35157"
       sodipodi:nodetypes="ccscc" />
    <path
       style="fill:#5d5d5d;fill-opacity:1;stroke:none;stroke-width:0.0233861"
       d="m 110.94442,115.381 c -0.025,-0.0398 -0.12203,-0.47476 -0.15694,-0.70349 -0.0543,-0.35558 -0.0756,-0.65049 -0.0559,-0.77283 l 0.0188,-0.11662 0.0154,0.0821 c 0.008,0.0452 0.0219,0.12309 0.0298,0.17314 0.009,0.0587 0.0226,0.0831 0.0374,0.0688 0.0447,-0.0432 -0.0157,-1.52964 -0.0927,-2.27724 -0.0699,-0.67886 -0.21535,-1.40867 -0.36484,-1.83015 -0.29616,-0.83497 -0.65716,-1.17066 -1.26548,-1.17674 -0.25358,-0.003 -0.45125,0.0423 -0.70448,0.15963 -0.48063,0.22278 -0.84069,0.6137 -1.03838,1.12735 -0.21778,0.56587 -0.42253,1.50806 -0.50898,2.34214 -0.031,0.29935 -0.0326,0.56068 -0.007,1.16935 l 0.008,0.18726 -0.0334,-0.10584 c -0.17832,-0.56505 0.0672,-2.48579 0.44899,-3.5123 0.12885,-0.34645 0.23384,-0.52895 0.41418,-0.71998 0.63921,-0.6771 1.16238,-0.87692 1.77591,-0.6783 0.37933,0.1228 0.60053,0.34108 0.83046,0.81948 0.35634,0.74138 0.56613,2.15894 0.6646,4.49072 0.0253,0.59896 0.0167,1.32409 -0.0151,1.27353 z"
       id="path36208" />
    <path
       style="fill:#5d5d5d;fill-opacity:1;stroke:none;stroke-width:0.0233861"
       d="m 119.38294,117.72451 c -0.25284,-0.0679 -0.34199,-0.78674 -0.42425,-1.6106 -0.0384,-0.38446 -0.19911,-1.77763 -0.14711,-1.98752 0.0437,-0.17636 0.60615,-0.42059 0.6454,-0.41991 0.086,0.002 0.40106,0.68811 0.46303,2.18417 0.0382,0.92152 -0.2348,1.84899 -0.26534,1.84846 -0.0142,-2.5e-4 -0.12285,0.0254 -0.17295,0.0119 z"
       id="path37727"
       sodipodi:nodetypes="ssscssss" />
    <path
       style="fill:#5d5d5d;fill-opacity:1;stroke:none;stroke-width:0.0233861"
       d="m 133.68154,128.14811 c -0.0312,-0.18427 -0.0308,-0.53942 0.0154,-0.68283 0.058,-0.17999 0.31881,-0.79622 0.40558,-0.83041 0.0915,-0.036 0.56134,0.0964 0.57051,0.14957 0.0161,0.0934 -0.54937,1.35349 -0.6454,1.48012 -0.0314,0.0414 -0.33161,-0.0312 -0.34606,-0.11645 z"
       id="path38973"
       sodipodi:nodetypes="ssssss" />
    <path
       style="fill:#cbcbcb;fill-opacity:1;stroke:none;stroke-width:0.0467722"
       d="m 123.97833,166.35286 c -0.0151,-0.12224 0.14418,-0.64335 0.13135,-0.69023 -0.0203,-0.0741 -0.28467,0.16329 -0.20613,0.21427 0.0744,0.0483 0.19077,-1.60344 0.689,-1.71859 1.05458,-0.24374 1.656,-0.0765 1.66252,-0.19067 0.006,-0.10504 -0.0127,1.52633 -0.0115,1.65926 0.72291,0.25552 0.25433,0.84542 0.0631,0.89176 -0.73106,0.17711 -2.32796,1.13757 -2.17806,-0.22679 0.0131,-0.11962 -0.12416,0.27208 -0.15021,0.061 z"
       id="path45909"
       sodipodi:nodetypes="ssssscssss" />
    <g
       id="g6499"
       clip-path="url(#clipPath6605)"
       transform="translate(-2.7385151,-8.1961819)">
      <path
         style="fill:#000000;stroke-width:0.264583"
         d="m 113.55945,174.23108 c -0.12186,-0.91949 -0.34932,-0.7493 -0.4304,-1.45044 -0.44842,-1.3933 -0.15098,-1.50179 -0.56475,-2.37223 -0.15732,-0.32246 -0.42931,-1.06254 -0.60443,-1.64463 -0.17512,-0.58208 -0.50434,-1.41552 -0.7316,-1.85208 -0.22726,-0.43656 -0.43819,-0.9375 -0.46872,-1.11319 -0.0305,-0.1757 -0.40226,-0.83054 -0.82605,-1.45521 -1.02539,-1.19135 -1.39373,-1.64171 -1.67996,-1.94982 -1.32361,-1.44272 -1.94848,-3.43973 -2.52577,-4.19925 -0.43222,-0.56163 -0.56361,-0.97611 -1.0045,-1.83899 -0.33039,-0.83391 -0.3778,-1.17917 -0.63336,-1.52135 -0.25557,-0.34219 -0.7552,-1.75391 -1.18078,-2.62704 -0.58912,-2.53699 -0.68239,-2.06016 -0.68732,-2.32972 -0.51104,-1.69828 -0.8474,-2.2034 -1.43339,-4.04652 -0.19946,-0.63621 -0.29497,-0.48204 -0.56084,-1.25452 -0.844976,-1.56357 -1.399002,-1.96362 -1.600445,-3.99043 -0.104002,-1.09141 -0.311343,-2.13169 -0.460756,-2.31173 -0.298364,-0.80345 -0.0049,-1.41359 -0.772297,-2.46086 -0.118822,-0.0783 -0.0465,-0.46919 0.160729,-0.86861 0.311327,-1.15635 1.193082,-1.65899 1.946263,-1.71746 0.868876,-0.10846 1.688536,0.56246 2.173316,0.86629 1.38525,0.60393 3.72397,4.22504 3.573,4.61203 0.28697,0.48353 0,0 0.53786,0.67968 -0.006,0.79519 0.2129,0.87913 0.83568,2.19 0,0 0.027,0.0374 0.55433,1.8807 0.0942,-0.0123 0.23083,7.9e-4 0.30359,0.0293 0.54577,0.21277 1.00634,0.17257 0.92982,-0.0812 0.29418,-2.46754 0.51535,-2.84476 0.49839,-5.99317 -0.0799,-9.79263 -0.23132,-16.06919 -0.35702,-16.28324 0.0599,-0.4695 0.37678,-1.1283 0.51708,-1.84074 0.54234,-2.46162 1.49753,-2.94749 2.91407,-3.08578 0.737,-0.0766 0.9229,0.12484 1.51453,0.83378 0.64392,0.80021 0.57932,0.96407 1.09126,1.59057 0.0922,1e-5 0.192,1.31242 0.22184,2.91645 0.0298,1.60403 0.11396,3.01302 0.18693,3.13109 0.073,0.11807 0.10742,0.77413 0.19284,1.25896 0.0933,1.05242 0.0711,1.13352 0.16512,1.49087 0.21298,0.26376 0.62415,1.94084 0.70813,2.88837 0.009,0.097 0.10493,0.26568 0.21407,0.37482 0.10915,0.10914 0.19844,-0.75902 0.19844,-1.92925 -0.007,-2.60906 0.79609,-4.97251 0.85586,-6.34448 -0.13344,-2.2258 0.30986,-2.82088 0.0461,-3.92089 0.29434,-1.74021 0.32122,-2.06044 0.64322,-2.69487 0.83622,-1.58118 2.25253,-1.95014 2.81892,-1.9336 1.30745,0.0382 1.98393,0.59124 1.98995,1.74063 0.62705,5.36142 0.45832,12.30336 0.66897,15.19271 0.0638,0.80036 0.13028,2.05052 0.14764,2.77812 l 0.0316,1.32292 0.34546,-1.32292 c 0.19001,-0.7276 0.47003,-1.72327 0.62228,-2.21259 0.15224,-0.48933 0.25598,-0.96558 0.23052,-1.05834 -0.0255,-0.0928 0.0974,-0.42754 0.27312,-0.74397 0.17567,-0.31643 0.36742,-0.79268 0.42611,-1.05833 1.10622,-2.23578 1.2616,-4.56752 2.02077,-7.09227 0.37023,-1.51927 0.58559,-1.55769 0.71964,-2.11542 0.66945,-1.31673 0.74705,-1.09247 1.2541,-1.45705 0.0914,-0.1479 0.58504,-0.2689 1.09697,-0.2689 0.67267,0 1.14195,0.21118 1.6923,0.76153 0.94264,1.50638 0.76021,2.51628 0.7454,4.00097 -0.37155,2.23024 -0.49741,3.10703 -0.98273,4.31129 -0.2073,1.16082 -0.82811,2.69277 -0.82948,2.7948 -0.23573,1.86183 -0.2074,2.73296 -0.48486,3.00598 -0.79922,3.32246 -1.70828,4.4152 -0.70986,5.97943 1.23151,-1.18783 1.84881,-3.65213 2.9984,-5.14114 1.29674,-2.72938 2.61419,-5.01792 4.49725,-6.96725 0.83548,-0.74165 2.04332,-0.13521 2.22706,0.54489 0.10658,-0.0149 0.26648,0.29966 0.35532,0.69899 0.0888,0.39933 0.12449,1.02795 -0.0637,1.51649 -0.53426,2.02273 -0.42488,1.76609 -1.24573,3.71585 -0.21717,1.19875 -3.36518,9.77078 -4.18582,9.38433 -0.21906,-0.31133 2.19715,-4.72371 2.24254,-4.10104 0.0517,0.73826 -0.58298,0.65282 -0.41682,1.10491 -0.19183,-0.0864 -1.98328,4.41822 -2.02652,4.39866 -0.0987,-0.061 -0.15278,0.28697 -0.16276,0.67326 -0.0866,3.35054 -1.65506,12.90724 -2.37335,14.46067 -1.36925,2.96574 -1.96454,4.57273 -1.32006,7.80521 0.22458,1.20743 0.50184,3.56004 0.51932,4.4065 0.009,0.45905 0.10052,0.78316 0.20231,0.72026 0.10178,-0.0629 0.25511,0.33541 0.34072,0.88516 0.36839,2.36559 0.84726,4.57745 1.03075,4.76094 111.1438,212.11328 307.04472,962.88773 -1.62161,-1.38028 -0.19533,-1.30969 -0.52695,-3.15516 -0.73692,-4.10104 -0.20998,-0.94589 -0.50102,-2.4937 -0.64677,-3.43959 -0.44932,-2.91612 -0.72799,-4.02507 -1.06358,-4.23247 -0.23021,-0.14227 -0.23869,-0.25108 -0.0296,-0.38028 0.16106,-0.0995 0.29283,-0.37078 0.29283,-0.60276 0,-0.23198 0.36415,-1.19251 0.80922,-2.13451 0.44507,-0.94199 0.74647,-1.87625 0.66976,-2.07614 -0.0767,-0.19988 -0.0114,-0.36342 0.14513,-0.36342 0.15652,0 0.21368,-0.18478 0.12702,-0.41062 -0.0904,-0.23546 -0.046,-0.34166 0.10398,-0.24897 0.14386,0.0889 0.26156,0.1009 0.26156,0.0267 0,-0.0743 0.18526,-0.82541 0.41169,-1.66926 0.40952,-2.44072 0.79498,-4.15578 1.04736,-6.43085 0.0995,-1.09042 0.35509,-2.85823 0.56795,-3.92848 0.21287,-1.07025 0.32591,-2.00703 0.2512,-2.08174 -0.0747,-0.0747 -0.21111,0.20563 -0.3031,0.62298 -0.28878,1.31008 -0.37708,1.46706 -0.90246,1.60445 -0.39871,0.10427 -0.5534,0.46416 -0.69842,1.6249 -0.10246,0.82003 -0.40629,1.79026 -0.67517,2.15606 -0.6952,0.94577 -2.30212,4.88438 -2.73391,6.70086 -0.34196,1.43859 -1.10659,3.0079 -1.34796,2.76653 -0.0589,-0.0589 0.12917,-0.57069 0.41801,-1.13723 0.28884,-0.56655 0.52517,-1.34792 0.52517,-1.73639 0,-0.90244 1.12706,-3.91682 2.16724,-5.79639 1.018,-1.83949 1.43573,-3.45913 1.19422,-4.63021 -0.11077,-0.53711 -0.47316,-0.57931 -2.03136,-0.23654 -0.63643,0.14 -0.64137,0.12967 -0.1812,-0.37881 0.30813,-0.34049 0.37481,-0.58347 0.19125,-0.69692 -0.52055,-0.32171 -0.28822,-1.22526 0.50022,-1.94538 l 0.78204,-0.71429 -0.54344,-0.8583 c -0.29889,-0.47207 -0.64207,-0.8583 -0.76263,-0.8583 -0.12056,0 -0.2747,-0.20836 -0.34254,-0.46302 -0.0678,-0.25466 -0.11683,0.10162 -0.10887,0.79174 0.01,0.86249 -0.13767,1.42288 -0.47217,1.79249 -0.34339,0.37944 -0.49513,0.98364 -0.5155,2.05253 -0.0175,0.91721 -0.20047,1.77575 -0.46385,2.17626 -0.57976,0.88161 -2.58841,7.07731 -2.58841,7.98397 0,2.6957 2.57345,-1.59164 3.33056,-5.54865 0.40007,-2.09099 0.75632,-2.96449 1.20907,-2.96449 0.19248,0 0.18186,0.12749 -0.0321,0.38529 -0.17587,0.2119 -0.23158,0.52795 -0.12381,0.70233 0.11698,0.18928 0.084,0.24788 -0.0818,0.14541 -0.37101,-0.2293 -0.60479,0.4446 -0.56647,1.63288 -0.71684,2.80212 -0.65283,3.02287 -1.46095,4.58255 -0.61383,1.19428 -1.31391,2.29623 -1.55573,2.44877 -0.66179,0.41744 -1.11749,-0.20502 -1.10542,-1.50994 0.012,-1.29976 1.77548,-6.83606 2.50283,-7.85752 0.65545,-0.92049 0.68186,-3.31077 0.0412,-3.72582 -0.39186,-0.25385 -0.38777,-0.26788 0.0391,-0.13425 0.27828,0.0871 0.40947,0.0404 0.31511,-0.11231 -0.0889,-0.14386 0.0278,-0.26156 0.25937,-0.26156 0.23156,0 0.51377,-0.25073 0.62713,-0.55719 0.2478,-0.66985 0.0758,-2.08864 -0.2532,-2.08864 -0.129,0 -0.23455,-0.42374 -0.23455,-0.94166 0,-0.56039 0.10712,-0.87545 0.26458,-0.77813 0.14666,0.0906 0.26768,-0.10878 0.27154,-0.44741 0.004,-0.33601 0.29089,-1.77214 0.63793,-3.19141 0.34703,-1.41927 0.59984,-2.78849 0.56179,-3.04271 -0.0381,-0.25422 0.15113,-0.6178 0.4204,-0.80795 0.38348,-0.2708 0.48959,-0.68941 0.48959,-1.93137 0,-0.93022 0.17347,-1.92108 0.41965,-2.39715 0.23081,-0.44634 0.35706,-1.05089 0.28055,-1.34346 -0.0765,-0.29256 0.0156,-0.78467 0.2046,-1.09357 0.18904,-0.3089 0.33068,-1.18659 0.31477,-1.95041 -0.0159,-0.76382 0.0887,-1.42812 0.23253,-1.47622 0.16178,-0.0541 0.13279,-0.36988 -0.0761,-0.82823 -0.44169,-0.96941 -0.21744,-1.16913 0.34644,-0.30854 0.37545,0.573 0.39379,0.82001 0.122,1.64352 -0.17874,0.54161 -0.25055,1.47475 -0.16277,2.11521 0.0879,0.64149 0.0435,1.21624 -0.10086,1.30547 -0.14187,0.0877 -0.25794,0.43551 -0.25794,0.77295 0,0.33744 -0.17859,1.04096 -0.39688,1.56339 -0.21828,0.52242 -0.38202,1.57875 -0.36386,2.34741 l 0.033,1.39756 0.19745,-1.32291 c 0.1086,-0.72761 0.43778,-2.09683 0.7315,-3.04271 0.29372,-0.94589 0.57697,-2.31511 0.62943,-3.04271 0.0525,-0.72761 0.20639,-1.40289 0.34205,-1.50062 0.15248,-0.10986 0.15248,-0.66244 0,-1.44731 -0.31732,-1.63331 -1.17221,-2.22796 -2.37846,-1.65443 -0.90863,0.43202 -1.38645,1.65677 -2.22641,5.70675 -0.29656,1.42988 -0.82338,3.43321 -1.17073,4.45186 -0.34734,1.01864 -0.89577,2.80458 -1.21872,3.96875 -1.48506,5.35328 -1.59658,5.55455 -2.46562,4.44976 -0.47838,-0.60816 -0.50945,-0.93962 -0.36379,-3.88028 0.15921,-3.21423 0.0189,-5.46427 -0.34077,-5.46427 -0.20455,0 -0.39338,5.10254 -0.29365,7.93485 0.0333,0.94442 0.25164,2.12 0.48529,2.61238 0.34312,0.72308 0.36676,1.04907 0.12292,1.69507 -0.16604,0.4399 -0.22525,0.92385 -0.13156,1.07544 0.15104,0.2444 0.29151,1.37193 0.36802,2.95413 0.0141,0.29104 -0.3396,2.25558 -0.78593,4.36563 -0.44633,2.11005 -0.81692,4.4913 -0.82353,5.29166 -0.009,1.0393 -0.0853,1.34178 -0.26851,1.05834 -0.14107,-0.21828 -0.25831,-0.83898 -0.26053,-1.37933 -0.005,-1.31335 1.47224,-8.35434 1.84841,-8.80759 0.2234,-0.26919 0.19498,-0.55655 -0.11418,-1.1544 -0.22639,-0.4378 -0.33961,-0.98365 -0.2516,-1.213 0.088,-0.22935 0.0132,-0.59397 -0.16637,-0.81027 -0.25886,-0.31191 -0.25834,-0.55752 0.002,-1.18726 0.26154,-0.63144 0.26185,-0.9558 0.002,-1.58437 -0.18006,-0.43472 -0.42558,-0.7297 -0.54559,-0.65553 -0.12001,0.0742 -0.15587,-0.3143 -0.0797,-0.86326 0.10632,-0.76606 0.071,-0.90585 -0.15172,-0.60124 -0.22185,0.30334 -0.25726,0.14744 -0.15027,-0.66146 0.077,-0.58208 0.18451,-2.60615 0.23893,-4.49792 0.0544,-1.89177 0.18672,-3.65387 0.29401,-3.91577 0.10728,-0.2619 0.0463,-1.17707 -0.13547,-2.03371 -0.20455,-0.96388 -0.25872,-2.13229 -0.14212,-3.06553 0.14179,-1.13481 0.10074,-1.56357 -0.16585,-1.73255 -0.19484,-0.1235 -0.23339,-0.22637 -0.0857,-0.22859 0.32424,-0.005 0.3563,-4.2114 0.0359,-4.71326 -0.38789,-0.60761 -0.88276,0.13107 -1.05348,1.5725 -0.0884,0.74646 -0.33459,1.5493 -0.54708,1.78409 -0.28205,0.31167 -0.31399,0.55619 -0.11832,0.90583 0.14741,0.26341 0.19529,0.66846 0.1064,0.90011 -0.0889,0.23165 -0.0257,0.83297 0.14038,1.33626 0.26453,0.80154 0.21082,1.14156 -0.43289,2.74056 -0.59966,1.48959 -0.68056,1.93451 -0.43967,2.41798 0.30602,0.61417 0.37493,1.63529 0.41819,6.19683 0.015,1.57846 0.1199,2.56445 0.2534,2.38125 0.14465,-0.19849 0.17043,-0.13569 0.0706,0.172 -0.0865,0.26656 -0.15723,0.61383 -0.15723,0.7717 0,0.15787 -0.0838,0.20327 -0.18616,0.10088 -0.21925,-0.21925 -1.10235,1.8437 -1.11792,2.61151 -0.009,0.44443 0.0338,0.46561 0.26713,0.13229 0.21752,-0.31069 0.24149,-0.26759 0.11041,0.19843 -0.12046,0.42826 -0.0555,0.59532 0.23164,0.59532 0.67362,0 0.73104,0.45704 0.17251,1.37315 -0.29368,0.4817 -0.53259,0.69721 -0.5309,0.47893 0.002,-0.21828 0.10418,-0.55641 0.22777,-0.7514 0.14855,-0.23438 0.0127,-0.56655 -0.40093,-0.98016 -0.76763,-0.76763 -0.77633,-1.16657 -0.0693,-3.1724 0.49932,-1.41646 0.54285,-1.98535 0.42441,-5.54708 -0.0726,-2.18281 -0.22535,-4.19981 -0.33947,-4.48221 -0.13145,-0.3253 0.004,-1.11915 0.36935,-2.16626 0.59808,-1.71368 0.69155,-2.76324 0.32689,-3.67028 -0.11702,-0.29104 -0.11695,-0.71418 1.3e-4,-0.9403 0.11709,-0.22612 0.11106,-0.57588 -0.0134,-0.77725 -0.14627,-0.23668 -0.0462,-0.59503 0.28305,-1.01361 0.28012,-0.35612 0.50931,-1.04256 0.50931,-1.52541 0,-1.30167 0.50546,-2.22572 1.21748,-2.22572 0.33186,0 0.6997,0.14882 0.81743,0.33073 0.19097,0.29507 0.30461,2.06558 0.32397,5.04758 0.005,0.6938 0.10225,0.95355 0.31042,0.82489 0.37656,-0.23272 0.13811,-5.40693 -0.28567,-6.19876 -0.75093,-1.40312 -2.68717,-0.71635 -3.37725,1.19788 -0.47273,1.31132 -0.93856,8.47334 -0.98015,15.06955 -0.0308,4.88477 -0.23213,6.21771 -0.93916,6.21771 -0.45027,0 -1.00812,-1.44795 -1.17593,-3.05226 -0.0908,-0.86787 -0.27859,-2.29232 -0.41735,-3.16545 -0.13876,-0.87312 -0.25319,-1.67679 -0.25429,-1.78594 -0.001,-0.10914 -0.0932,-0.19843 -0.20466,-0.19843 -0.22802,0 -0.19001,3.03077 0.0677,5.39609 0.0935,0.85789 0.47269,2.13867 0.84284,2.84656 0.61094,1.1684 0.63722,1.34155 0.28539,1.87995 -0.34295,0.52481 -0.33631,0.74983 0.0577,1.95625 0.34055,1.04276 0.36386,1.33202 0.0992,1.23045 -0.19032,-0.073 -0.46115,-0.54971 -0.60185,-1.05929 -0.14071,-0.50958 -0.47045,-1.10277 -0.73278,-1.3182 -0.45929,-0.37718 -0.4593,-0.38609 -1.8e-4,-0.24082 0.27871,0.0882 0.40961,0.0422 0.31511,-0.11069 -0.0889,-0.14385 -0.0356,-0.26155 0.11855,-0.26155 0.55908,0 0.28351,-1.51203 -0.40018,-2.19572 -0.62515,-0.62515 -0.69139,-0.91264 -0.81613,-3.54181 -0.0747,-1.57379 -0.12654,-3.13518 -0.11526,-3.46976 0.0113,-0.33458 -0.15117,-1.01919 -0.36099,-1.52135 -0.34743,-0.83152 -0.34136,-0.91538 0.068,-0.9394 0.28257,-0.0166 0.20386,-0.10505 -0.21194,-0.23821 -0.61074,-0.1956 -0.61732,-0.21386 -0.0858,-0.23821 0.56771,-0.026 0.56956,-0.0407 0.13402,-1.06052 -0.2429,-0.56877 -0.51899,-0.98633 -0.61352,-0.9279 -0.0945,0.0584 -0.0684,-0.33942 0.0581,-0.88409 0.28672,-1.23463 0.30043,-1.71875 0.0442,-1.56037 -0.10914,0.0674 -0.21804,-0.31248 -0.242,-0.84428 -0.0239,-0.53181 -0.10333,-1.26458 -0.17638,-1.62838 -0.0731,-0.36381 -0.14276,-1.05215 -0.15488,-1.52966 -0.0205,-0.80814 -0.60671,-1.41346 -0.99386,-1.02631 -0.18175,0.18175 -0.352,2.95899 -0.28644,4.67263 0.0817,2.13705 0.0117,3.82278 -0.18924,4.55216 -0.14767,0.53608 -0.0572,0.89365 0.36059,1.42474 0.57184,0.72699 0.76704,1.59203 0.29315,1.29915 -0.36572,-0.22603 -0.33438,0.75041 0.036,1.12077 0.51603,0.51603 0.61295,5.03738 0.14187,6.61829 -0.22765,0.76398 -0.30501,1.38906 -0.17189,1.38906 0.13311,0 0.17348,0.17859 0.0897,0.39688 -0.22679,0.591 0.50265,0.48775 1.0472,-0.14823 0.33006,-0.38548 0.71531,-0.52107 1.31557,-0.46303 1.05682,0.1022 1.08015,0.55517 0.0401,0.77839 -0.42831,0.0919 -0.61008,0.18122 -0.40392,0.19844 0.20615,0.0172 0.30438,0.10175 0.21828,0.18785 -0.0861,0.0861 -0.37215,0.0359 -0.63567,-0.11159 -0.42339,-0.23694 -0.38722,-0.28863 0.31088,-0.44427 1.22209,-0.27248 1.37044,-0.35092 0.70647,-0.37355 -0.33699,-0.0115 -0.85069,0.10648 -1.14156,0.26215 -0.41006,0.21946 -0.46146,0.36423 -0.22883,0.64454 0.33284,0.40104 -0.0938,1.24407 -0.80252,1.83222 -0.52409,0.43495 -0.37175,0.0424 0.15023,-0.75354 0.3871,-0.59079 0.3738,-0.62926 -0.27358,-0.79174 -1.10418,-0.27713 -1.36303,-1.22769 -0.79188,-2.90797 0.43748,-1.28705 0.45299,-1.6582 0.15757,-3.76968 -0.18023,-1.28814 -0.36065,-2.81833 -0.40093,-3.40041 -0.0403,-0.58208 -0.2301,-1.38569 -0.4218,-1.78579 -0.28477,-0.59431 -0.28685,-0.91443 -0.0114,-1.74913 0.25668,-0.77776 0.27248,-1.5059 0.0662,-3.04986 -0.21903,-1.63911 -0.19855,-2.17344 0.10675,-2.78543 0.28124,-0.56376 0.30896,-0.93825 0.10849,-1.46554 -0.30654,-0.80625 -0.0178,-1.56875 0.69797,-1.84343 0.72012,-0.27634 1.38194,0.61993 1.44992,1.96355 0.0331,0.65485 0.22747,1.45328 0.43187,1.77431 0.2044,0.32102 0.31467,0.67821 0.24504,0.79375 -0.0696,0.11554 -0.024,0.68632 0.10137,1.2684 0.16271,0.75534 0.19256,0.34798 0.10428,-1.4229 -0.15624,-3.13411 -0.54886,-4.50341 -1.38209,-4.8202 -0.69023,-0.26243 -1.26378,-0.0495 -1.97077,0.73175 -0.57846,0.63918 -1.08282,3.68119 -0.7221,4.35521 0.14561,0.27208 0.17126,0.49457 0.057,0.49443 -0.28981,-3.8e-4 -0.1395,4.55634 0.33317,10.10023 0.42583,4.99463 0.30389,9.67463 -0.26422,10.14065 -0.35003,0.28712 -0.93815,1.30033 -0.93815,1.61623 0,0.10769 0.29718,-0.0834 0.66041,-0.42463 0.36323,-0.34123 0.74287,-0.53797 0.84364,-0.4372 0.10077,0.10077 -0.54326,0.86522 -1.43118,1.69878 -1.21252,1.1383 -1.62709,1.71316 -1.66542,2.30932 -0.08,1.24442 -0.0329,1.30475 0.60036,0.76861 0.59471,-0.50352 0.59484,-0.50347 0.13229,0.046 -0.25466,0.3025 -0.25946,1.77569 -0.0695,2.47489 0.0676,0.2489 -0.5236,-1.34078 -0.88444,-1.66738 -0.27,-0.24435 -0.67742,-0.37269 -0.90537,-0.28522 -0.22795,0.0875 -0.64365,0.0364 -0.92377,-0.11353 -0.36014,-0.19274 -0.59868,-0.18321 -0.81443,0.0325 -0.20567,0.20567 -0.30511,0.2122 -0.30511,0.02 0,-0.56845 0.7009,-0.89711 1.35495,-0.63535 0.34618,0.13855 0.46075,0.25946 0.25459,0.26868 -0.20615,0.009 -0.30442,0.0872 -0.21837,0.17322 0.24509,0.2451 1.28049,-0.16519 1.11059,-0.44008 -0.0835,-0.13505 -0.0257,-0.24554 0.12845,-0.24554 0.15411,0 0.2802,-0.24515 0.2802,-0.54478 0,-0.29963 -0.10315,-0.48103 -0.22922,-0.40311 -0.12607,0.0779 -0.45349,-0.12137 -0.7276,-0.44285 -0.49184,-0.57684 -0.49143,-0.57968 0.0308,-0.21647 0.29104,0.20243 -0.0395,-0.13896 -0.7345,-0.75865 -1.6018,-1.42817 -2.11694,-2.39823 -1.89677,-3.57185 0.13934,-0.7427 0.0711,-0.94778 -0.39898,-1.19937 -0.40807,-0.21839 -0.5194,-0.45363 -0.39707,-0.83904 0.17797,-0.56074 -0.81771,-1.91922 -1.22306,-1.6687 -0.23437,0.14485 -0.59688,-0.34611 -0.68463,-0.9272 -0.14729,-0.97543 -1.207834,-2.15561 -1.591927,-1.77152 -0.217771,0.21777 0.534614,1.47126 0.788805,1.31416 0.156202,-0.0965 0.184442,-0.0317 0.06812,0.15656 -0.109263,0.17678 -0.07146,0.64166 0.08401,1.03306 0.23617,0.59458 0.42976,1.48948 0.54029,2.49758 0.012,0.10914 0.20035,0.19843 0.41863,0.19843 0.47636,0 0.48192,0.053 0.0948,0.90276 -0.24471,0.53707 -0.21736,0.79242 0.14391,1.34379 0.24532,0.37441 0.54066,0.62225 0.65632,0.55077 0.11566,-0.0715 0.47665,0.34396 0.8022,0.9232 0.68564,1.21993 1.16799,2.71452 0.80333,2.48914 -0.39428,-0.24367 0.0395,1.54099 0.51642,2.12472 0.4538,0.55542 0.53313,1.12442 0.22524,1.61539 -0.10088,0.16087 0.20293,0.75618 0.67513,1.32292 1.5783,1.89427 3.35754,5.00194 3.71465,6.48808 0.18527,0.77105 1.06329,1.4567 2.04303,1.59544 0.47312,0.067 0.67554,0.29517 0.77509,0.8737 0.10684,0.62094 0.35368,0.86533 1.19233,1.18053 1.34562,0.50574 1.74111,0.88261 1.4345,1.36697 -0.36339,0.57407 -0.33002,0.63936 1.01215,1.98037 0.69123,0.69062 1.05638,1.10968 0.81145,0.93125 -0.3671,-0.26745 -0.54136,-0.22839 -0.99218,0.22244 -0.30078,0.30078 -0.54687,0.81889 -0.54687,1.15135 0,1.17641 1.08943,3.67971 2.36408,5.4322 1.48586,1.23793 0.97198,3.02561 -0.14311,1.65165 0,0 0.18549,-0.86207 -0.43823,-1.7352 -1.24354,-1.74081 -2.3119,-4.25123 -2.3119,-5.4325 0,-0.47828 0.21356,-0.90479 0.58243,-1.16315 l 0.58243,-0.40795 -0.73733,-0.76961 c -0.53111,-0.55436 -0.71251,-0.98097 -0.64858,-1.52528 0.0791,-0.67329 -0.0555,-0.82821 -1.23416,-1.42099 -1.01421,-0.51006 -1.31801,-0.80333 -1.30191,-1.25677 0.0165,-0.46336 -0.1268,-0.59273 -0.66146,-0.59734 -1.06951,-0.009 -1.76535,-0.7562 -2.7673,-2.97068 -0.51027,-1.12778 -1.00681,-2.05052 -1.10342,-2.05052 -0.26971,-0.48849 -0.26456,-0.50597 -0.64731,-1.05705 -0.29155,-0.40944 -0.53009,-0.8526 -0.53009,-0.98481 0,-0.13221 -0.37749,-0.59008 -0.83886,-1.01749 l -0.83886,-0.77711 0.52729,0.79375 c 0.29002,0.43657 0.71781,1.21047 0.95064,1.71979 2.10341,4.60106 2.84958,6.08413 3.03077,6.02392 0.11645,-0.0387 0.71546,0.33458 1.33114,0.82953 0.96787,0.77807 1.46448,1.49843 1.51342,2.1953 0.007,0.10187 0.16183,0.33404 0.34373,0.51594 0.1819,0.1819 0.33073,0.48713 0.33073,0.67828 0,0.19115 0.11686,0.55429 0.2597,0.80698 0.82679,1.4627 2.37567,6.74746 2.70167,9.35792 -0.54432,0.18651 -1.04027,0.0497 -1.11384,-0.52092 z M 110.6,162.7634 c -0.21065,-0.31725 -0.79072,-0.87669 -1.28904,-1.24321 -0.80878,-0.59485 -0.77942,-0.53292 0.27352,0.57682 1.28156,1.35071 1.6153,1.56972 1.01552,0.66639 z m -6.92042,-11.985 c -0.0285,-0.50609 -0.19739,-1.06569 -0.37525,-1.24355 -0.39438,-0.39437 -0.40473,-0.12422 -0.0449,1.17152 0.34407,1.23894 0.4873,1.26349 0.42013,0.072 z m -0.82313,-2.96783 c -0.20106,-1.07173 -1.25171,-3.29108 -2.02789,-4.28363 -0.70205,-0.89776 -0.63579,-0.71334 0.69783,1.94213 0.65448,1.30321 1.18998,2.58313 1.18998,2.84427 0,0.26114 0.0728,0.4748 0.16173,0.4748 0.089,0 0.0792,-0.43991 -0.0217,-0.97757 z m 4.00197,-2.15211 c -0.64278,-0.71027 -0.53374,-0.91407 0.22357,-0.41786 0.74423,0.48763 0.85452,0.34362 0.26961,-0.35204 -0.21552,-0.25632 -0.56892,-0.70417 -0.78534,-0.99521 -0.66368,-0.66664 -0.0463,-0.23523 -0.8603,-1.33822 -0.52772,-0.52772 -1.12753,-2.07871 -1.13354,-2.93111 -0.005,-0.64412 -1.73713,-3.34927 -2.76022,-4.3096 -0.37584,-0.35279 -0.68334,-0.55264 -0.68334,-0.44412 0,0.10852 -0.1871,0.0102 -0.41578,-0.21847 -0.47979,-0.47979 -1.248661,-0.53481 -1.982861,-0.14188 -0.738008,0.39497 -0.633103,0.82498 0.153122,0.62765 0.796891,-0.20001 1.283939,0.15895 2.181989,1.60812 0.36204,0.58422 1.00857,1.39012 1.43672,1.79088 0.5708,0.53429 0.7321,0.87473 0.60468,1.2762 -0.11817,0.37234 -0.0179,0.66148 0.31323,0.90364 0.34245,0.25039 0.48915,0.70087 0.4942,1.51751 0.008,1.28849 0.61971,2.26662 2.05107,3.27943 1.0339,0.73157 1.49116,0.80584 0.89318,0.14508 z m 25.52613,-0.99625 c 0.25718,-1.18305 0.25358,-1.74084 -0.0102,-1.57783 -0.13195,0.0815 -0.17636,-0.0947 -0.0987,-0.39175 0.0777,-0.29702 0.20772,-0.47353 0.289,-0.39224 0.0813,0.0813 0.41496,-0.50892 0.7415,-1.31154 0.32655,-0.80263 0.82213,-1.78715 1.10129,-2.18781 0.62335,-0.89466 0.88602,-1.86725 0.5589,-2.06943 -0.13423,-0.083 -0.18327,-0.24919 -0.10897,-0.36941 0.0743,-0.12022 -0.0599,-0.29339 -0.29814,-0.38482 -0.23827,-0.0914 -0.36435,-0.23512 -0.28017,-0.3193 0.0842,-0.0842 0.42536,0.0377 0.7582,0.27082 0.84418,0.59129 1.09855,0.53003 0.95334,-0.22959 -0.0691,-0.3617 -0.016,-0.58611 0.11914,-0.50262 0.13424,0.083 0.20751,-0.01 0.16283,-0.20644 -0.0447,-0.19651 0.17522,-0.774 0.48866,-1.28333 0.55787,-0.90651 1.49407,-3.97213 1.27878,-4.18742 -0.0599,-0.0599 0.0733,-0.29107 0.29591,-0.51373 0.22265,-0.22265 0.34719,-0.62519 0.27676,-0.89454 -0.0704,-0.26935 -0.0202,-0.48972 0.11174,-0.48972 0.1319,0 0.23982,0.1389 0.23982,0.30868 0,0.16977 0.0765,0.23218 0.16999,0.13868 0.29681,-0.29681 -0.47524,-0.97653 -1.10917,-0.97653 -0.83831,0 -2.06393,1.55663 -2.79072,3.54444 -0.32475,0.88821 -0.88859,2.13588 -1.25298,2.77258 -0.66246,1.15753 -0.66247,1.15762 -0.0664,0.8386 0.32788,-0.17548 0.7721,-0.75595 0.98716,-1.28994 0.79909,-1.9842 1.15904,-2.63689 1.53345,-2.78056 0.21134,-0.0811 0.51041,-0.61596 0.66461,-1.18859 0.15419,-0.57263 0.48038,-1.20384 0.72486,-1.40269 0.39477,-0.32109 0.42096,-0.30234 0.23399,0.16762 -0.11579,0.29104 -0.31649,0.89519 -0.44601,1.34256 -0.12952,0.44737 -0.52473,1.08512 -0.87824,1.41723 -0.35351,0.33211 -0.57908,0.76975 -0.50126,0.97254 0.0778,0.20279 0.0143,0.36871 -0.14121,0.36871 -0.15548,0 -0.40932,0.47026 -0.56408,1.04503 -0.17826,0.66201 -0.57798,1.25621 -1.09058,1.62121 -0.53538,0.38123 -0.76715,0.7369 -0.68496,1.05117 0.0683,0.26125 -0.0918,0.83014 -0.35574,1.2642 -0.26397,0.43407 -0.42774,0.84143 -0.36393,0.90524 0.20687,0.20687 -0.68476,2.41887 -1.41316,3.50586 -0.39006,0.58208 -0.67316,1.1774 -0.62911,1.32292 0.044,0.14552 -0.006,0.1788 -0.11055,0.074 -0.10484,-0.10484 -0.53808,0.0568 -0.96276,0.35919 -0.8918,0.63502 -0.9385,1.63682 -0.0813,1.74471 l 0.52917,0.0666 -0.52917,-0.24374 c -0.52656,-0.24254 -0.52653,-0.24383 0.007,-0.26233 0.64306,-0.0223 1.77819,0.71942 1.58339,1.03461 -0.0759,0.12279 0.0709,0.19272 0.3263,0.1554 0.27118,-0.0396 0.5338,-0.38762 0.63142,-0.83666 z m 4.06619,-12.01362 c -0.0899,-0.14552 -0.0445,-0.26458 0.10107,-0.26458 0.14552,0 0.33816,0.11906 0.4281,0.26458 0.0899,0.14552 0.0445,0.26458 -0.10106,0.26458 -0.14552,0 -0.33817,-0.11906 -0.42811,-0.26458 z m 0.26646,-1.0553 c -0.0927,-0.14998 0.0135,-0.19434 0.24897,-0.10399 0.45837,0.1759 0.54223,0.36554 0.16165,0.36554 -0.13693,0 -0.32171,-0.1177 -0.41062,-0.26155 z m -2.99106,10.5803 c -0.0758,-0.21828 -0.0411,-0.30923 0.077,-0.2021 0.24108,0.21851 2.63323,-4.53063 2.39971,-4.76415 -0.20169,-0.2017 -0.17041,-0.252 -1.57313,2.52965 -0.68178,1.35201 -1.17531,2.56223 -1.09672,2.68938 0.0786,0.12716 0.002,0.27815 -0.1702,0.33555 -0.1937,0.0646 -0.22737,0.24304 -0.0883,0.46806 0.17834,0.28855 0.26245,0.25799 0.40711,-0.14791 0.10028,-0.28138 0.1203,-0.6902 0.0445,-0.90848 z m -33.739445,-0.57878 c -0.08446,-0.21106 -0.147156,-0.14837 -0.15985,0.15986 -0.01148,0.27891 0.05104,0.43518 0.138964,0.34726 0.08792,-0.0879 0.09732,-0.31612 0.02088,-0.50712 z m 31.602145,-1.70031 c 0.41848,-0.92292 0.76086,-2.02934 0.76086,-2.4587 0,-0.42936 0.15707,-0.93799 0.34904,-1.13029 0.19197,-0.1923 0.42417,-0.64728 0.516,-1.01109 0.16229,-0.64289 0.15541,-0.6466 -0.24498,-0.13229 -0.43653,0.56074 -1.18021,2.15745 -1.2631,2.71193 -0.0272,0.18187 -0.22689,0.47953 -0.44378,0.66146 -0.2169,0.18193 -0.56711,0.56143 -0.77825,0.84334 -0.35215,0.47018 -0.34013,0.4967 0.14528,0.32079 0.39374,-0.14269 0.33891,-0.0255 -0.21427,0.45787 -0.65059,0.56851 -0.7018,0.7163 -0.41006,1.18345 0.45469,0.72807 0.69812,0.50568 1.58326,-1.44647 z m -31.864114,-1.08931 c -0.06708,-0.25743 -0.126381,-0.11087 -0.131773,0.32569 -0.0054,0.43656 0.04949,0.64719 0.12197,0.46806 0.07247,-0.17913 0.07689,-0.53632 0.0098,-0.79375 z m 29.585434,-2.84931 c 0.24626,-1.16416 0.55464,-2.46185 0.68531,-2.88375 0.30109,-0.97219 0.30456,-1.74646 0.008,-1.74646 -0.12636,0 -0.29978,0.44649 -0.38538,0.99219 -0.0856,0.5457 -0.39894,2.05772 -0.6963,3.36004 -0.29736,1.30231 -0.53126,2.67153 -0.51977,3.0427 l 0.02,0.58705 0.21642,-0.32812 c 0.21108,-0.32003 0.42562,-1.85948 0.67187,-3.02365 z m 7.78345,-0.7432 c 0.0102,-0.11773 -0.10047,-0.14046 -0.24599,-0.0505 -0.14552,0.0899 -0.25621,0.42439 -0.24599,0.74322 0.0179,0.5589 0.0268,0.56071 0.24599,0.0505 0.12507,-0.29104 0.23576,-0.62549 0.24599,-0.74322 z m -22.81942,0.29674 c -18.729413,-18.02248 -9.36471,-9.01124 0,0 z m 8.99845,-0.93754 c -0.0671,-0.25744 -0.12638,-0.11087 -0.13177,0.32569 -0.005,0.43656 0.0495,0.64719 0.12197,0.46806 0.0725,-0.17914 0.0769,-0.53632 0.01,-0.79375 z m -6.3416,-1.98468 c -0.0589,-0.47555 -0.10828,-0.15026 -0.10977,0.72287 -0.002,0.87312 0.0467,1.26221 0.10707,0.86463 0.0604,-0.39757 0.0616,-1.11195 0.003,-1.5875 z m 20.81179,1.18589 c 0.2675,-0.5457 0.59153,-1.1978 0.72005,-1.4491 0.12853,-0.25131 0.2884,-1.02521 0.35528,-1.71979 l 0.1216,-1.26288 -0.39957,0.89469 c -0.21976,0.49208 -0.33523,1.06233 -0.25661,1.26723 0.0786,0.2049 0.0345,0.57619 -0.098,0.8251 -0.13254,0.24891 -0.30752,0.63116 -0.38885,0.84944 -0.0813,0.21828 -0.34266,0.66476 -0.58075,0.99218 -0.23809,0.32743 -0.32637,0.59532 -0.1962,0.59532 0.13018,0 0.45556,-0.44649 0.72307,-0.99219 z m -23.46864,-5.40742 c -0.0845,-0.21107 -0.14715,-0.14837 -0.15985,0.15985 -0.0115,0.27892 0.051,0.43518 0.13897,0.34727 0.0879,-0.0879 0.0973,-0.31613 0.0209,-0.50712 z m -0.083,-2.5705 c -0.11755,-0.58779 -0.25558,-0.76747 -0.44445,-0.57861 -0.18887,0.18887 -0.1745,0.49221 0.0463,0.97677 0.4113,0.90272 0.61717,0.69686 0.39816,-0.39816 z m 8.14136,-2.07563 c -0.0769,-1.65629 -0.1441,-1.92381 -0.34888,-1.38968 -0.29294,0.76408 0.0127,3.43556 0.39362,3.4402 0.0278,3.4e-4 0.008,-0.9224 -0.0447,-2.05052 z m 1.15384,54.43741 c -0.0899,-0.14553 -0.0374,-0.26459 0.11668,-0.26459 0.15411,0 0.2802,0.11906 0.2802,0.26459 -0.0506,0.41223 -0.23767,0.18825 -0.39688,0 z m 4.99351,-10.72065 c 0.0717,-0.0717 0.38084,0.43358 0.38084,0.67613 0,0.24253 0.0984,0.0648 0.14883,0.16812 0.0638,0.13078 0.16536,1.25065 0.16536,2.02636 0,0.77571 0.23632,2.71048 0.52515,4.29948 1.54633,9.34286 -2.01594,-4.42851 -1.22018,-7.17009 z m -1.84394,7.51833 c -0.45095,-2.66697 -0.71739,-3.5438 -1.42564,-4.69161 -0.63109,-1.02276 -1.42654,-2.72103 -1.15406,-2.85372 0.45258,-0.22039 0.38749,1.14264 0.37798,0.93313 -0.008,-0.63994 0.0642,0.23029 0.55266,0.84676 1.06597,1.34528 1.55622,2.69611 1.95661,5.39119 0.59326,3.99328 0.35367,4.28481 -0.30755,0.37423 z m -3.28656,2.607 c -0.003,-0.0364 -0.1178,-1.13771 -0.25603,-2.44739 -0.25369,-2.40369 -0.0377,-4.14996 0.5589,-4.51868 0.17258,-0.10666 0.15612,0.0632 -0.042,0.43334 -0.22778,0.4256 -0.28602,1.50979 -0.19361,3.60381 0.0727,1.64729 0.0884,2.99507 0.0348,2.99507 -0.0534,0.0147 -0.0857,-0.0555 -0.10206,-0.0661 z m 5.21162,-9.54397 c -0.19968,-0.11797 0.0517,0.0344 -0.31213,-0.13133 -0.3638,-0.16576 -0.66146,-0.46794 -0.66146,-0.67153 0,-0.59868 -0.64507,-1.00695 -1.01171,-0.64031 -0.23855,0.23855 -0.3112,0.23514 -0.3112,-0.0146 0,-0.1792 0.17951,-0.39469 0.39891,-0.47888 0.56047,-0.21508 2.59266,1.85369 2.4312,2.47495 -0.0964,0.37106 -0.1201,-0.29398 -0.40499,-0.4623 z m -4.61468,-0.5845 c 0.39033,-0.41195 2.30977,-1.14554 2.44114,-0.93298 0.13161,0.21296 -0.64268,0.58786 -1.97505,0.95627 -0.3638,0.10059 -0.57354,0.0901 -0.46609,-0.0233 z m -0.983,-1.70488 c -0.26003,-0.28732 -0.68235,-0.58892 -0.93848,-0.67022 -0.25614,-0.0813 -0.53051,-0.39562 -0.60972,-0.6985 -0.13772,-0.52665 -0.11355,-0.52337 0.55332,0.0749 l 0.69734,0.6256 c 0.29754,0.66821 1.64044,1.14272 0.97048,1.19062 -0.11009,0 -0.41292,-0.23508 -0.67294,-0.52241 z m -0.17216,-0.44694 c -81.112432,-105.44798 -40.556216,-52.72399 0,0 z m 1.19841,0.47649 c 1.26204,-0.86441 1.7625,-1.10509 2.08516,-1.18777 0.5575,-0.14285 0.55378,-0.12484 -0.0748,0.3624 -0.76993,0.5968 -2.34075,1.45895 -2.36367,1.31822 -0.0229,-0.14073 0.344,-0.47284 0.35331,-0.49285 z m -6.49007,-1.02849 c -0.32911,-0.41964 -0.31975,-0.429 0.0999,-0.0999 0.25466,0.19973 0.46302,0.40808 0.46302,0.46303 0,0.21776 -0.21727,0.0776 -0.56291,-0.36313 z m 8.765,-0.96096 c -0.0243,-1.50514 -0.66601,-2.1629 -0.50186,-2.21104 0.29751,-0.0873 1.03102,1.66575 1.03102,1.884 0,0.21828 -0.11906,0.47046 -0.26458,0.5604 -0.14552,0.0899 -0.26105,-0.0151 -0.26458,-0.23336 z m -9.42194,-0.27657 c -0.0797,-0.20769 -0.10055,-0.65418 -0.0463,-0.99218 0.0725,-0.45211 0.13394,-0.35229 0.23238,0.37763 0.13853,1.02723 0.0652,1.26936 -0.18604,0.61455 z m 0.46788,-1.20987 c 0,-0.3638 0.0601,-0.51263 0.13345,-0.33072 0.0734,0.1819 0.0734,0.47955 0,0.66145 -0.0734,0.18191 -0.13345,0.0331 -0.13345,-0.33073 z m -1.35573,-0.78261 c -0.31055,-0.19641 -0.24117,-0.30113 0.34795,-0.52511 0.90583,-0.3444 0.966,-0.34534 0.966,-0.0152 0,0.14552 -0.18562,0.26458 -0.41249,0.26458 -0.22687,0 -0.3389,0.11906 -0.24897,0.26458 0.2041,0.33024 -0.13871,0.33609 -0.65249,0.0111 z m 9.29805,0.0233 c -0.28815,-0.18269 -0.28397,-0.2884 0.0236,-0.59598 0.20564,-0.20565 0.44316,-0.55037 0.52782,-0.76606 0.12418,-0.31634 0.82241,-1.21151 0.83926,-0.85055 0.0115,0.24607 -0.7684,1.43041 -0.92099,1.52472 -0.18965,0.11721 -0.1794,0.28957 0.0324,0.54478 0.34041,0.41017 0.0498,0.49302 -0.50212,0.14313 z m -13.17522,-1.21235 c -0.0811,-0.21131 -0.0545,-0.53874 0.0591,-0.7276 0.16353,-0.27192 0.12514,-0.2776 -0.18444,-0.0273 -0.31708,0.25634 -0.39097,0.22632 -0.39097,-0.15884 0,-0.32719 0.14825,-0.43615 0.47659,-0.35028 0.59071,0.15447 0.82626,0.50102 0.48422,0.7124 -0.14154,0.0875 -0.19027,0.33383 -0.1083,0.54745 0.082,0.21362 0.073,0.3884 -0.0199,0.3884 -0.0929,0 -0.23524,-0.17289 -0.31633,-0.3842 z m 17.36196,-0.11257 c 0,-0.1277 0.19808,-0.39559 0.44019,-0.59531 0.39915,-0.32927 0.41062,-0.30762 0.12298,0.23219 -0.32806,0.61567 -0.56317,0.76727 -0.56317,0.36312 z m -21.94278,-1.37295 c -0.33217,-0.73498 -0.5486,-1.39168 -0.48095,-1.45933 0.0676,-0.0676 0.37932,0.4938 0.69261,1.24766 0.74006,1.78078 0.57299,1.94785 -0.21166,0.21167 z m 10.06583,0.41452 c -0.007,-0.14552 0.16233,-0.4957 0.37598,-0.77818 0.21366,-0.28247 0.38847,-0.36474 0.38847,-0.18282 0,0.18192 0.12785,0.25175 0.28411,0.15517 0.15627,-0.0966 0.13059,0.0703 -0.0571,0.37071 -0.21169,0.33897 -0.40778,0.43853 -0.51667,0.26233 -0.11627,-0.18813 -0.22391,-0.16224 -0.31894,0.0767 -0.0789,0.19837 -0.14904,0.24161 -0.1559,0.0961 z m 5.82836,-0.40568 c -0.34354,-0.2862 -0.51082,-0.52037 -0.37173,-0.52037 0.13909,0 0.46838,0.23813 0.73177,0.52917 0.60507,0.6686 0.44849,0.66477 -0.36004,-0.009 z m -10.97842,-1.27144 c -0.37879,-0.41856 -0.39337,-0.53139 -0.084,-0.65012 0.73247,-0.28108 1.50056,-2.38525 1.50056,-4.11079 0,-1.78378 -1.03266,-6.98105 -1.73669,-8.7406 -0.40985,-1.02431 0.5778,-1.27105 0.009,-1.77928 -1.18575,-1.05948 0.77713,-0.70693 0.46037,0.18631 -0.23984,0.67637 -0.13207,1.63675 0.16319,1.45427 0.0981,-0.0607 0.18889,0.14625 0.2017,0.45978 0.0128,0.31352 0.29762,1.87973 0.63294,3.48046 0.8331,3.97709 0.85546,6.55976 0.0683,7.89167 -0.3291,0.55687 -0.53102,1.12148 -0.4487,1.25467 0.0823,0.1332 0.0467,0.42621 -0.0792,0.65113 -0.20072,0.35868 -0.28521,0.34669 -0.6872,-0.0975 z m 4.4974,-2.38647 c -0.86841,-1.93508 -1.48007,-4.65664 -1.49503,-6.65204 -0.006,-0.80036 -0.11459,-1.90169 -0.24131,-2.44739 -0.13444,-0.5789 -0.13181,-0.99219 0.006,-0.99219 0.1302,0 0.23854,-0.26789 0.24077,-0.59531 0.004,-0.65378 0.41558,-1.45451 0.63443,-1.23566 0.0759,0.0759 0.004,0.57411 -0.15929,1.10702 -0.59842,1.94982 0.55193,9.7984 1.58797,10.83445 0.38954,0.38953 1.00104,-0.92764 1.38256,-2.97799 0.40512,-2.17725 0.42346,-5.63208 0.0372,-7.00473 -0.32703,-1.16208 -0.0968,-2.53665 0.45582,-2.72084 0.26596,-0.0887 0.27746,0.007 0.0517,0.42838 -0.3499,0.6538 -0.38769,1.99153 -0.0504,1.78305 0.13195,-0.0815 0.18116,0.11979 0.10934,0.44741 -0.0932,0.42521 -0.0588,0.49463 0.12026,0.24258 0.19325,-0.27203 0.29569,-0.72245 0.35742,0.24148 -0.50952,2.43401 -0.18409,0.11817 -0.3464,3.68349 -0.0978,2.15561 -0.30793,3.7219 -0.60332,4.49792 -0.24927,0.65484 -0.54805,1.60734 -0.66395,2.11666 -0.12543,0.55117 -0.23058,0.71183 -0.25976,0.39688 -0.0466,-0.50282 -0.0587,-0.50446 -0.24397,-0.0329 -0.156,0.39707 -0.33991,0.17322 -0.92038,-1.12023 z m -6.99802,0.49984 c -0.47308,-0.43209 -0.94529,-0.81904 -1.04936,-0.85989 -0.10407,-0.0409 -0.15229,-0.23506 -0.10717,-0.43156 0.0451,-0.19651 -0.0436,-0.27962 -0.1972,-0.1847 -0.17552,0.10848 -0.21453,0.004 -0.10503,-0.28143 0.0963,-0.25089 0.0653,-0.38744 -0.0692,-0.30521 -0.13387,0.0818 -0.27429,-0.37488 -0.31205,-1.01493 -0.0378,-0.64006 -0.77455,-3.35219 -0.71215,-3.35219 0.0624,0 1.06561,2.77564 1.30399,3.49331 0.23837,0.71768 0.84871,1.84877 1.3563,2.51354 0.50759,0.66478 2.72733,2.15889 2.56397,2.46093 -0.0224,0.0413 -2.19904,-1.60578 -2.67211,-2.03787 z m 11.66287,-1.33105 c 0.0219,-0.29104 0.12297,-0.52916 0.22454,-0.52916 0.74585,0 2.27907,-6.10356 1.98635,-7.9074 -0.1078,-0.66428 0.002,-1.16682 0.39246,-1.79887 0.29814,-0.48238 0.58449,-0.87707 0.63633,-0.87707 0.26227,0 -0.0321,1.06282 -0.3255,1.17542 -0.20028,0.0769 -0.33341,0.54392 -0.32249,1.13139 0.0154,0.82728 0.0613,0.90888 0.26512,0.47132 0.36085,-0.77454 0.15506,0.77716 -0.49951,3.76639 -0.36292,1.6574 -0.81164,2.87032 -1.39482,3.77031 -0.47287,0.72976 -0.89184,1.32684 -0.93105,1.32684 -0.0392,0 -0.81879,-0.21501 -0.5477,-0.32318 z m -15.94775,-6.63019 c 0,-0.15411 0.11907,-0.20662 0.26459,-0.11668 0.14552,0.0899 0.26458,0.21603 0.26458,0.2802 0,0.0642 -0.11906,0.11667 -0.26458,0.11667 -0.14552,0 -0.26459,-0.12609 -0.26459,-0.28019 z m 26.47923,-0.40331 c -87.322472,-93.46774 -43.661236,-46.73387 0,0 z m -22.51048,-1.96233 c 0.21829,-0.14106 0.51594,-0.25648 0.66146,-0.25648 0.14552,0 0.086,0.11542 -0.13229,0.25648 -0.21828,0.14107 -0.51594,0.25648 -0.66146,0.25648 -0.14552,0 -0.086,-0.11541 0.13229,-0.25648 z m 5.31256,-1.21267 c 0.0127,-0.30823 0.0754,-0.37092 0.15985,-0.15986 0.0764,0.191 0.067,0.4192 -0.0209,0.50712 -0.0879,0.0879 -0.15046,-0.0683 -0.13897,-0.34726 z m 9.33058,-1.12562 c 0.35303,-0.39244 0.34093,-0.50714 -0.11227,-1.06446 -0.65908,-0.81046 -0.6411,-1.07647 0.14472,-2.14158 0.35897,-0.48656 0.5787,-1.00434 0.48829,-1.15062 -0.10067,-0.16288 -0.0286,-0.18203 0.18604,-0.0494 0.2516,0.1555 0.30463,0.0972 0.18804,-0.20661 -0.0893,-0.23275 -0.0529,-0.46064 0.081,-0.50642 0.38733,-0.13248 1.10139,-4.41894 0.91746,-5.50756 -0.11865,-0.70231 -0.052,-1.10041 0.23177,-1.38417 0.23498,-0.23498 0.33638,-0.63517 0.24727,-0.97591 -0.10492,-0.40124 0.14947,-1.01392 0.8332,-2.00667 0.79798,-1.15862 0.95152,-1.57806 0.81134,-2.21632 -0.1902,-0.86594 0.44074,-3.05961 1.08484,-3.77186 0.21557,-0.23838 0.39708,-0.71463 0.40335,-1.05834 0.0214,-1.17482 0.22016,-1.75716 0.65677,-1.9247 0.32139,-0.12334 0.37072,-0.0787 0.18695,0.16925 -0.1373,0.18523 -0.28261,0.7535 -0.3229,1.26283 -0.0403,0.50932 -0.30336,1.32213 -0.5846,1.80625 -0.28124,0.48411 -0.45234,0.97567 -0.38023,1.09234 0.0721,0.11667 -0.0535,0.58227 -0.27922,1.03465 -0.2296,0.46024 -0.31804,0.96967 -0.2008,1.15662 0.33069,0.52728 0.1025,1.27957 -0.77499,2.55496 -0.50439,0.73311 -0.8437,1.59044 -0.89387,2.25852 -0.18268,2.43286 -0.3467,3.80369 -0.66621,5.568 -0.40934,2.26033 -0.41629,2.30213 -0.45438,2.73438 -0.0168,0.19049 -0.14958,0.27276 -0.2951,0.18282 -0.24246,-0.14985 -0.38242,0.21159 -0.28936,0.74727 0.0208,0.11996 -0.0789,0.14593 -0.22163,0.0577 -0.14273,-0.0882 -0.46023,0.14594 -0.70554,0.52034 -0.37131,0.56669 -0.39238,0.7985 -0.12574,1.3837 0.17616,0.38663 0.40141,0.59011 0.50055,0.45218 0.0991,-0.13793 0.59698,-0.24035 1.1063,-0.2276 1.33827,0.0335 1.50097,0.0883 1.0708,0.36039 -0.21143,0.13375 -0.74721,0.18143 -1.19063,0.10597 -0.50431,-0.0858 -0.68397,-0.0497 -0.47977,0.0965 0.23086,0.16525 0.0507,0.35867 -0.61533,0.66054 -0.87714,0.39757 -0.91462,0.39668 -0.5461,-0.013 z m -22.05147,-1.23358 c -0.18373,-0.22139 -0.21239,-0.39688 -0.0648,-0.39688 0.14552,0 0.4128,0.17859 0.59396,0.39688 0.18373,0.22138 0.21238,0.39687 0.0648,0.39687 -0.14552,0 -0.4128,-0.17859 -0.59396,-0.39687 z m -0.48102,-1.32292 c -0.16576,-0.3638 -0.20399,-0.66146 -0.0849,-0.66146 0.11904,0 0.35206,0.29766 0.51782,0.66146 0.16576,0.3638 0.20398,0.66146 0.0849,0.66146 -0.11904,0 -0.35206,-0.29766 -0.51782,-0.66146 z m 17.56098,-0.83662 c 0.51426,-0.37603 1.39172,-0.45746 2.08069,-0.19308 0.83766,0.32144 0.3848,0.5537 -1.07293,0.55027 -1.31004,-0.003 -1.43262,-0.0465 -1.00776,-0.35719 z m 1.77664,0.002 c -0.17913,-0.0725 -0.53632,-0.0769 -0.79375,-0.01 -0.25743,0.0671 -0.11087,0.12638 0.32569,0.13178 0.43657,0.005 0.64719,-0.0495 0.46806,-0.12197 z m -0.60035,-12.52645 -0.66146,-0.21184 0.72761,-0.0264 c 0.40018,-0.0145 0.7276,0.0927 0.7276,0.23821 0,0.14552 -0.0298,0.25272 -0.0661,0.23821 -0.0364,-0.0145 -0.36381,-0.1217 -0.72761,-0.23821 z"
         id="path184"
         sodipodi:nodetypes="cccsssccccscccccccccccccccccccccccscccsccccsccscssscccccsccccccccccccccccscccssccsssssssscssccsssssssssssssssscssccsssssssssccssssssssssccscssssssscssssssscsscssssssssscssssscscssscccsscsssssscsssssssssssscssssscssssscssssssscssssssscssssscssssssssssssssscccsscscsssssssssssssssscsssssscssssssssssssssssssssssssssssccsssssscssssssssssscssssssssssssssssccssscsssccsccsscscsscssscccsscssccssssccssssccsssssssscsssssssssssscssccsssssssssssssssssssssssssssccsscssssccsssssssssssssssssssssscssscsssssssssscssscsscsscsccssccsscccccccscscscsssssssssscssssssscssscccsccsccscsccscsssssscssssccsssssssssssssssssssssccsscccsszcsssssssssssscssscssscccsssssccssssssssssssssscssscsssssccccsssccsssscssssccccssssscssscccssssssccccsssssccsssssssssscsscsssssssscssccssssssssssssssscsssssssssssscsssssscssssssssssssssscscsccccccccccscscscccscsc" />
      <path
         style="fill:none;stroke:#000000;stroke-width:0.264583px;stroke-linecap:butt;stroke-linejoin:miter;stroke-opacity:1"
         d="m 114.99343,166.25824 c 1.13392,-0.28349 1.22842,1.13392 2.45684,1.5119 1.22842,0.37798 4.06325,0.37798 4.53572,0.37798 0.47247,0 1.03943,-0.28348 1.41741,-0.28348 0.37797,0 1.13393,0.56696 1.13393,1.13392 0,0.56697 -0.47247,1.2048 -0.47247,1.2048 l -0.77958,0.96856 c -0.11965,0.47078 -0.11812,1.93713 -0.11812,1.93713"
         id="path237"
         sodipodi:nodetypes="cssssccc" />
      <path
         style="fill:none;stroke:#000000;stroke-width:0.264583px;stroke-linecap:butt;stroke-linejoin:miter;stroke-opacity:1"
         d="m 115.34778,166.08106 c -0.56696,-0.28349 -1.50009,-1.61821 -1.50009,-1.99619 0,-0.37797 0.48428,-0.66146 1.05125,-0.85044 0.56696,-0.18899 1.22842,-0.94494 1.5119,-0.94494 0.28348,0 0.75595,0.28348 0.75595,0.85044 0,0.56697 -0.18898,1.41741 0.37798,1.98438 0.56697,0.56696 0.75595,0.94494 1.70089,0.94494 0.94494,0 1.03944,0.47247 1.79539,-0.0945 0.75595,-0.56696 0.64476,-1.01699 1.30622,-0.54452 0.66145,0.47247 1.04323,0.48885 1.49519,1.21172 0.26993,0.43171 0.52783,0.73875 0.3503,1.13917 -0.19149,0.43192 -0.0334,-0.21954 -0.97835,-0.12505 -0.94494,0.0945 -0.97884,0.22477 -2.02876,0.26392 -1.41957,0.0529 -1.04753,-0.0754 -1.91469,-0.19235 -0.84281,-0.11365 -0.99456,0.16132 -1.77867,-0.24958 -0.77167,-0.40437 -1.58936,-1.44425 -2.14451,-1.397 z"
         id="path360"
         sodipodi:nodetypes="cssssssssssssssc" />
    </g>
  </g>
</svg>
