<?xml version="1.0" standalone="no"?>
<!DOCTYPE svg PUBLIC "-//W3C//DTD SVG 20010904//EN"
 "http://www.w3.org/TR/2001/REC-SVG-20010904/DTD/svg10.dtd">
<svg version="1.0" xmlns="http://www.w3.org/2000/svg"
 width="700.000000pt" height="700.000000pt" viewBox="0 0 700.000000 700.000000"
 preserveAspectRatio="xMidYMid meet">
<metadata>
Created by potrace 1.14, written by Peter Selinger 2001-2017
</metadata>
<g transform="translate(0.000000,700.000000) scale(0.100000,-0.100000)"
fill="#000000" stroke="none">
<path d="M3465 6412 c-67 -32 -141 -105 -175 -172 -41 -81 -59 -204 -65 -464
-5 -169 -13 -274 -26 -351 -11 -60 -28 -162 -40 -225 -11 -63 -23 -197 -28
-298 -10 -237 -24 -254 -56 -73 -10 53 -27 121 -37 151 -11 30 -24 87 -29 125
-5 39 -16 116 -25 172 -8 56 -19 216 -24 355 -6 139 -13 266 -16 283 -9 39
-102 182 -156 239 -42 44 -47 46 -100 46 -152 0 -250 -76 -297 -230 -82 -268
-79 -251 -70 -414 13 -233 32 -1597 24 -1736 -3 -69 -16 -197 -28 -285 l-22
-160 -40 1 c-90 3 -79 -11 -132 169 -3 10 -25 59 -49 109 -24 49 -44 104 -44
121 0 21 -9 40 -25 55 -13 12 -32 44 -40 71 -23 68 -140 241 -226 334 -113
120 -254 205 -344 205 -102 0 -177 -61 -221 -180 l-25 -64 30 -56 c18 -34 35
-86 42 -129 6 -40 17 -88 24 -105 8 -18 23 -98 35 -177 27 -186 33 -208 88
-309 110 -205 134 -256 152 -333 24 -102 73 -253 107 -329 21 -47 28 -56 39
-47 12 9 14 3 14 -34 0 -26 10 -90 21 -144 21 -99 54 -171 141 -310 22 -34 48
-88 59 -119 24 -69 87 -195 133 -266 18 -29 57 -100 85 -157 68 -134 105 -188
243 -347 65 -76 127 -159 145 -195 57 -112 120 -262 161 -380 22 -63 49 -139
60 -169 11 -30 28 -95 36 -143 9 -49 24 -107 32 -130 9 -23 21 -64 28 -91 13
-52 44 -86 79 -86 11 0 34 -4 51 -9 33 -10 158 -34 191 -36 11 -1 31 -6 45
-12 14 -6 31 -8 38 -6 17 7 25 47 18 87 -6 32 -18 50 -106 161 -48 61 -148
253 -185 355 -37 104 -47 165 -35 209 13 48 75 121 103 121 12 0 50 -28 92
-69 57 -56 82 -72 126 -85 126 -36 445 -48 550 -21 53 14 62 14 88 0 37 -19
71 -62 71 -89 -1 -34 -36 -102 -85 -166 -46 -58 -47 -59 -57 -167 -9 -99 3
-361 19 -386 9 -15 23 5 23 34 0 39 25 48 120 42 59 -4 88 -1 137 16 34 12 64
21 67 21 2 0 7 -11 10 -25 8 -32 36 -33 36 -2 0 37 -38 235 -60 314 -28 100
-62 173 -121 260 -59 87 -91 157 -87 192 3 20 14 28 70 47 37 12 94 37 127 54
71 38 95 34 118 -18 27 -63 29 -66 61 -87 31 -20 31 -21 32 -105 0 -47 7 -141
15 -208 15 -117 62 -393 69 -400 7 -7 56 11 51 19 -9 14 35 31 87 35 27 1 70
11 95 20 l45 18 -7 50 c-12 91 -26 144 -45 166 -13 15 -20 45 -25 103 -10 131
-34 323 -55 448 -22 128 -26 298 -9 381 17 83 47 172 110 318 64 152 83 217
133 475 66 344 128 782 145 1020 7 101 14 139 29 165 11 19 34 69 50 110 17
41 56 129 89 195 32 66 68 143 80 170 40 91 184 478 208 560 13 44 40 121 60
170 20 50 52 150 72 224 41 159 40 206 -9 288 -50 83 -136 115 -207 78 -76
-39 -282 -328 -407 -570 -42 -82 -94 -178 -115 -211 -21 -34 -74 -135 -119
-225 -77 -155 -142 -259 -160 -259 -17 0 -45 96 -44 150 1 50 101 435 126 483
5 10 16 77 24 150 10 83 28 173 49 242 88 288 107 360 130 488 56 307 17 524
-106 600 -87 53 -184 49 -264 -11 -91 -68 -147 -212 -245 -632 -56 -241 -74
-298 -137 -449 -61 -143 -69 -166 -86 -241 -21 -92 -105 -391 -111 -398 -3 -3
-6 44 -6 104 0 60 -5 172 -10 249 -5 77 -14 345 -20 595 -15 671 -42 1061 -77
1120 -30 51 -76 73 -162 77 -68 4 -82 1 -136 -25z m145 -137 c30 -36 28 -468
-2 -486 -10 -6 -8 -13 10 -30 23 -21 23 -22 17 -188 -7 -145 -5 -184 15 -311
19 -125 21 -155 12 -220 -17 -113 -21 -171 -32 -460 -6 -146 -15 -310 -20
-364 -6 -55 -8 -101 -5 -104 2 -3 11 1 20 8 13 11 15 3 15 -66 0 -69 3 -81 21
-92 28 -18 59 -89 59 -138 0 -22 -9 -68 -21 -101 l-20 -61 20 -41 c14 -26 21
-59 21 -96 0 -37 8 -76 25 -115 28 -67 31 -101 11 -133 -27 -43 -114 -416
-161 -695 -38 -225 -31 -342 21 -362 44 -17 52 -12 105 67 105 156 155 298
219 625 16 87 30 174 30 195 l0 38 -20 -25 -20 -25 0 77 c0 66 3 80 24 105 36
44 46 68 46 115 0 38 4 45 31 61 23 12 30 23 26 37 -4 17 1 19 72 17 81 -2
133 15 112 36 -16 16 -201 15 -230 -2 -22 -12 -26 -12 -43 9 -10 12 -23 40
-30 62 -11 36 -9 45 12 85 28 53 63 83 89 76 17 -4 20 1 23 38 3 39 6 44 28
47 25 3 27 8 49 140 51 303 71 445 86 611 18 202 32 249 110 372 75 118 88
152 80 208 -11 84 -9 107 18 174 15 37 27 82 27 101 0 19 18 71 40 118 21 45
44 112 51 148 21 118 31 144 62 155 24 8 31 6 43 -9 21 -30 29 -86 14 -109 -7
-11 -16 -81 -21 -159 -6 -105 -14 -150 -29 -186 -14 -30 -22 -74 -24 -122 -3
-50 -12 -97 -29 -140 -30 -77 -36 -114 -46 -276 l-7 -122 -42 -47 c-33 -37
-42 -56 -42 -84 0 -39 -32 -202 -79 -406 -16 -72 -33 -156 -37 -185 -9 -71
-20 -100 -38 -100 -32 0 -33 -152 -1 -176 23 -17 35 -61 35 -127 0 -80 -23
-129 -67 -142 -23 -6 -33 -15 -33 -28 0 -17 -5 -19 -32 -13 l-31 6 26 -24 c32
-30 47 -83 47 -166 -1 -93 -14 -140 -75 -265 -57 -117 -143 -361 -196 -560
-56 -211 -42 -364 34 -373 39 -5 81 44 159 184 108 197 158 274 171 268 17 -6
32 28 51 108 21 92 29 173 20 199 -6 20 -10 14 -25 -41 l-18 -65 2 111 c2 118
13 150 49 140 17 -4 18 0 13 24 -4 18 0 40 10 60 9 17 14 39 11 48 -9 29 6 40
71 51 111 21 133 2 133 -113 0 -105 -33 -206 -140 -426 -134 -278 -191 -432
-211 -570 -6 -41 -19 -95 -29 -120 -50 -125 -69 -162 -103 -199 -20 -22 -44
-55 -53 -73 -9 -18 -30 -50 -47 -70 -35 -43 -31 -63 16 -83 28 -11 37 -23 51
-67 19 -58 40 -204 31 -217 -3 -5 -35 -23 -71 -40 -36 -17 -95 -51 -131 -76
-35 -25 -68 -45 -73 -45 -5 0 -55 45 -111 100 -57 55 -108 100 -115 100 -20 0
2 -62 31 -87 15 -13 21 -23 15 -23 -6 0 -32 -20 -58 -44 -59 -56 -90 -68 -134
-55 -18 5 -50 9 -71 9 -68 0 -159 55 -188 115 -6 11 0 8 11 -8 12 -15 29 -27
38 -27 12 0 2 14 -28 43 -45 42 -45 42 -43 107 4 155 -59 201 -168 119 -78
-58 -159 -92 -159 -65 0 22 -42 51 -128 86 -112 47 -129 62 -148 128 -21 74
-33 86 -98 101 -63 14 -135 57 -163 97 -11 16 -32 65 -47 109 -51 148 -185
382 -324 566 -117 155 -118 159 -103 218 13 53 4 91 -39 151 -43 60 -78 210
-50 210 20 0 9 54 -29 145 -50 120 -103 200 -141 213 -16 6 -43 30 -59 53 -37
50 -40 94 -11 158 26 57 25 69 -7 77 -16 3 -33 7 -39 9 -7 2 -17 37 -24 77 -7
40 -23 111 -37 158 -15 53 -23 99 -20 123 4 31 2 37 -14 37 -21 0 -81 94 -76
120 4 26 34 22 71 -11 46 -40 80 -99 96 -165 14 -63 41 -94 80 -94 56 0 125
-112 113 -186 -4 -27 1 -36 41 -69 l46 -37 -2 -102 c-3 -94 -1 -105 26 -155
16 -32 73 -102 135 -165 58 -61 97 -104 87 -96 -18 14 -19 14 -8 -6 17 -32 80
-84 102 -84 29 0 29 -75 0 -90 -11 -6 -20 -19 -20 -29 0 -10 -7 -24 -15 -31
-20 -17 -95 -26 -95 -11 0 6 7 11 15 11 23 0 18 16 -10 28 -39 18 -89 14 -117
-8 -43 -33 -45 -87 -2 -55 23 17 58 19 87 4 11 -7 52 -13 89 -13 78 -2 100
-17 136 -90 22 -42 65 -221 77 -319 4 -27 14 -56 23 -65 10 -10 16 -28 14 -46
-3 -23 0 -28 12 -23 12 5 16 0 16 -21 0 -23 18 -43 103 -113 135 -113 314
-249 327 -249 17 0 38 61 33 95 -3 21 8 54 35 110 56 116 67 168 65 330 -1
156 -14 256 -78 585 -23 124 -46 247 -50 274 -5 35 -12 50 -25 53 -22 6 -31
54 -19 113 13 68 11 79 -16 104 l-25 23 21 19 c12 10 30 37 41 58 19 37 19 50
3 117 -6 23 -2 28 32 44 36 18 155 35 142 21 -4 -4 -40 -15 -80 -24 -84 -20
-95 -38 -36 -61 40 -15 57 -10 39 12 -9 11 -2 16 38 26 88 22 90 64 4 77 -69
10 -109 -2 -165 -51 -31 -29 -59 -45 -75 -45 -24 0 -26 2 -20 34 4 20 2 37 -4
41 -15 10 -12 55 11 147 16 63 22 128 26 268 6 219 -6 342 -43 412 -13 26 -24
64 -24 84 0 32 3 36 21 31 46 -12 33 46 -30 137 -41 59 -43 79 -22 266 9 78
11 174 7 300 -7 189 6 469 24 516 8 20 16 25 37 22 41 -5 60 -48 72 -168 32
-305 38 -343 56 -356 19 -14 19 -34 -6 -170 -12 -68 -12 -72 9 -94 26 -28 85
-167 77 -180 -3 -6 -22 -10 -41 -10 -47 0 -43 -14 9 -30 39 -12 40 -14 17 -20
-32 -8 -31 -30 3 -127 24 -67 27 -93 37 -350 6 -153 15 -309 21 -348 9 -68 40
-137 74 -165 28 -23 56 -90 62 -145 5 -47 3 -55 -16 -67 -11 -7 -21 -21 -21
-32 0 -16 -5 -17 -37 -11 l-36 7 30 -26 c33 -27 60 -76 97 -176 31 -83 35
-136 12 -184 -10 -21 -21 -63 -25 -93 -5 -30 -14 -58 -20 -63 -9 -5 -11 -24
-8 -61 2 -30 10 -112 16 -184 27 -310 33 -359 56 -458 31 -140 77 -273 131
-385 46 -96 59 -105 81 -61 12 23 13 23 13 2 0 -40 19 -34 30 9 6 24 31 104
55 178 51 159 60 219 80 529 9 129 19 239 22 245 4 5 12 -6 19 -25 l12 -34 1
57 c1 64 -16 155 -30 164 -6 3 -16 0 -24 -6 -13 -11 -15 -6 -15 29 0 31 -4 41
-16 41 -14 0 -16 10 -12 73 3 39 13 89 23 109 10 21 16 40 13 44 -12 11 -50
-18 -63 -49 l-13 -32 -7 48 c-4 26 -11 50 -16 53 -5 3 0 18 11 34 34 47 62
119 55 140 -4 11 -18 23 -33 26 -54 12 -54 11 -46 61 l7 48 -21 -25 -21 -25
-1 36 c0 75 74 257 109 266 12 3 22 21 29 55 14 59 15 71 3 64 -15 -10 -20 62
-26 364 -7 327 -17 459 -40 513 -22 54 -19 86 21 194 20 54 47 133 62 177 l25
78 -18 77 c-11 42 -18 106 -17 143 1 37 -5 85 -12 105 -14 40 -12 58 10 83 21
25 42 93 60 193 26 152 64 210 104 162z m1806 -1290 c8 -34 -3 -74 -32 -112
-14 -19 -24 -45 -24 -65 0 -74 -71 -291 -140 -428 -22 -44 -40 -93 -40 -109 0
-20 -6 -30 -20 -34 -17 -4 -19 -11 -13 -55 3 -32 1 -52 -6 -56 -6 -4 -40 9
-75 28 -64 36 -96 45 -96 26 0 -5 14 -16 30 -25 23 -12 30 -22 30 -45 0 -17 5
-30 10 -30 6 0 10 -20 10 -44 0 -34 -10 -64 -40 -118 -22 -40 -77 -148 -122
-240 -45 -93 -87 -168 -93 -168 -14 0 -35 -43 -35 -70 0 -11 7 -20 15 -20 37
0 4 -190 -40 -227 -34 -30 -44 -29 -56 6 -16 45 -113 101 -175 101 -33 0 -30
-14 9 -33 26 -13 28 -16 11 -16 -12 -1 -33 8 -48 20 -32 25 -34 61 -6 107 25
41 107 94 138 89 15 -3 22 1 22 12 0 9 21 52 46 96 106 184 161 313 169 393 2
22 17 67 34 101 17 33 35 88 40 122 8 59 11 64 74 123 65 60 80 84 121 199 10
26 29 55 43 64 18 12 23 22 18 40 -7 29 6 54 58 113 49 56 70 98 103 200 22
71 28 80 49 80 18 0 26 -7 31 -25z m-2239 -607 c-2 -29 -3 -8 -3 47 0 55 1 79
3 53 2 -26 2 -71 0 -100z m-267 -200 c0 -9 -4 -20 -10 -23 -6 -4 -10 9 -10 32
0 28 3 34 10 23 5 -8 10 -23 10 -32z m-1513 -375 c-2 -16 -4 -5 -4 22 0 28 2
40 4 28 2 -13 2 -35 0 -50z m33 -248 c0 -14 -4 -25 -10 -25 -5 0 -10 11 -10
25 0 14 5 25 10 25 6 0 10 -11 10 -25z m1732 -2190 c3 -27 11 -72 18 -100 6
-27 13 -61 16 -73 6 -29 88 -118 127 -138 15 -8 66 -19 113 -25 47 -5 88 -10
92 -10 32 -5 58 8 105 51 30 28 59 50 63 49 5 0 40 -21 79 -47 82 -55 134
-119 133 -161 -1 -27 -3 -28 -24 -19 -17 8 -57 6 -149 -7 -80 -11 -149 -15
-193 -11 -37 3 -110 10 -162 14 -110 9 -139 22 -235 99 -38 31 -84 62 -100 69
-39 16 -141 123 -159 166 -20 45 -7 64 67 98 34 15 85 44 112 64 68 49 88 45
97 -19z"/>
<path d="M3525 5081 c95 -34 95 -34 95 -13 0 26 -19 32 -88 31 l-57 0 50 -18z"/>
<path d="M3466 3806 c-40 -15 -74 -42 -65 -51 23 -22 232 -15 265 10 16 11 15
14 -16 30 -45 24 -135 29 -184 11z m124 -26 c11 -7 1 -10 -35 -9 -37 0 -45 3
-30 9 27 12 47 12 65 0z"/>
<path d="M1594 3729 c8 -42 44 -99 62 -99 17 0 17 -1 2 41 -25 74 -77 121 -64
58z"/>
<path d="M1640 3587 c0 -21 56 -69 76 -65 15 3 13 8 -15 41 -33 37 -61 48 -61
24z"/>
<path d="M2970 3311 c0 -17 5 -31 10 -31 6 0 10 11 10 24 0 14 -4 28 -10 31
-6 4 -10 -7 -10 -24z"/>
<path d="M2012 2943 c2 -10 13 -19 26 -21 24 -4 29 7 10 26 -18 18 -40 15 -36
-5z"/>
<path d="M3288 1843 c-23 -26 -50 -84 -44 -91 4 -3 12 3 20 13 12 17 16 18 31
5 16 -13 20 -11 41 15 27 33 32 60 10 52 -8 -3 -17 1 -20 9 -7 19 -20 18 -38
-3z"/>
<path d="M3808 1834 c12 -21 105 -94 112 -88 7 7 -95 104 -110 104 -7 0 -8 -6
-2 -16z"/>
<path d="M2632 1768 c-14 -14 -16 -54 -3 -62 5 -3 20 3 33 14 l25 19 -11 -40
c-8 -32 -7 -45 4 -66 20 -35 36 -26 32 18 -2 23 2 40 12 48 22 19 20 38 -6 55
-35 22 -71 29 -86 14z"/>
<path d="M3121 1577 c-63 -25 -72 -40 -39 -61 39 -25 63 -24 61 1 -2 18 4 24
30 31 22 6 33 15 35 30 4 28 -16 28 -87 -1z"/>
<path d="M3221 1440 c0 -40 2 -42 11 -22 8 16 8 28 0 45 -9 19 -11 17 -11 -23z"/>
<path d="M5220 4622 c0 -18 39 -44 56 -38 15 6 16 9 3 20 -18 18 -59 30 -59
18z"/>
<path d="M5190 4515 c0 -21 48 -51 62 -37 7 7 4 16 -11 31 -24 24 -51 28 -51
6z"/>
</g>
</svg>
